<mxfile host="app.diagrams.net" agent="Mozilla/5.0 (X11; Linux x86_64; rv:127.0) Gecko/20100101 Firefox/127.0" version="24.7.7" pages="6">
  <diagram name="Page-1" id="Yeu_dY4VLoueyP14juLA">
    <mxGraphModel dx="3806" dy="2465" grid="0" gridSize="10" guides="1" tooltips="1" connect="1" arrows="1" fold="1" page="0" pageScale="1" pageWidth="827" pageHeight="1169" math="0" shadow="0">
      <root>
        <mxCell id="0" />
        <mxCell id="1" parent="0" />
        <mxCell id="XnN9rj1mT8MxuUo1-RK2-1" value="&lt;b&gt;PDF&lt;/b&gt;" style="swimlane;fontStyle=0;childLayout=stackLayout;horizontal=1;startSize=26;fillColor=none;horizontalStack=0;resizeParent=1;resizeParentMax=0;resizeLast=0;collapsible=1;marginBottom=0;whiteSpace=wrap;html=1;" parent="1" vertex="1">
          <mxGeometry x="-1348" y="-994" width="220" height="224" as="geometry" />
        </mxCell>
        <mxCell id="XnN9rj1mT8MxuUo1-RK2-2" value="&lt;div&gt;Pdf()&lt;/div&gt;" style="text;strokeColor=none;fillColor=none;align=left;verticalAlign=top;spacingLeft=4;spacingRight=4;overflow=hidden;rotatable=0;points=[[0,0.5],[1,0.5]];portConstraint=eastwest;whiteSpace=wrap;html=1;rounded=0;" parent="XnN9rj1mT8MxuUo1-RK2-1" vertex="1">
          <mxGeometry y="26" width="220" height="30" as="geometry" />
        </mxCell>
        <mxCell id="U_N-AK2l_mcDsKYONGYf-2" value="&lt;div&gt;Pdf( path:string )&lt;/div&gt;" style="text;strokeColor=none;fillColor=none;align=left;verticalAlign=top;spacingLeft=4;spacingRight=4;overflow=hidden;rotatable=0;points=[[0,0.5],[1,0.5]];portConstraint=eastwest;whiteSpace=wrap;html=1;rounded=0;" parent="XnN9rj1mT8MxuUo1-RK2-1" vertex="1">
          <mxGeometry y="56" width="220" height="30" as="geometry" />
        </mxCell>
        <mxCell id="U_N-AK2l_mcDsKYONGYf-1" value="&lt;div&gt;Open( path:string ) : void&lt;/div&gt;" style="text;strokeColor=none;fillColor=none;align=left;verticalAlign=top;spacingLeft=4;spacingRight=4;overflow=hidden;rotatable=0;points=[[0,0.5],[1,0.5]];portConstraint=eastwest;whiteSpace=wrap;html=1;rounded=0;" parent="XnN9rj1mT8MxuUo1-RK2-1" vertex="1">
          <mxGeometry y="86" width="220" height="30" as="geometry" />
        </mxCell>
        <mxCell id="U_N-AK2l_mcDsKYONGYf-3" value="&lt;div&gt;FindSignarute() : bool&lt;/div&gt;" style="text;strokeColor=none;fillColor=none;align=left;verticalAlign=top;spacingLeft=4;spacingRight=4;overflow=hidden;rotatable=0;points=[[0,0.5],[1,0.5]];portConstraint=eastwest;whiteSpace=wrap;html=1;rounded=0;" parent="XnN9rj1mT8MxuUo1-RK2-1" vertex="1">
          <mxGeometry y="116" width="220" height="30" as="geometry" />
        </mxCell>
        <mxCell id="XnN9rj1mT8MxuUo1-RK2-14" value="getRawSign() : vector&amp;lt;uchar&amp;gt;" style="text;strokeColor=none;fillColor=none;align=left;verticalAlign=top;spacingLeft=4;spacingRight=4;overflow=hidden;rotatable=0;points=[[0,0.5],[1,0.5]];portConstraint=eastwest;whiteSpace=wrap;html=1;" parent="XnN9rj1mT8MxuUo1-RK2-1" vertex="1">
          <mxGeometry y="146" width="220" height="26" as="geometry" />
        </mxCell>
        <mxCell id="XnN9rj1mT8MxuUo1-RK2-15" value="&lt;div&gt;getRawData() : vector&amp;lt;uchar&amp;gt;&lt;/div&gt;" style="text;strokeColor=none;fillColor=none;align=left;verticalAlign=top;spacingLeft=4;spacingRight=4;overflow=hidden;rotatable=0;points=[[0,0.5],[1,0.5]];portConstraint=eastwest;whiteSpace=wrap;html=1;" parent="XnN9rj1mT8MxuUo1-RK2-1" vertex="1">
          <mxGeometry y="172" width="220" height="26" as="geometry" />
        </mxCell>
        <mxCell id="U_N-AK2l_mcDsKYONGYf-4" value="EnableLogToStdErr(bool) :void" style="text;strokeColor=none;fillColor=none;align=left;verticalAlign=top;spacingLeft=4;spacingRight=4;overflow=hidden;rotatable=0;points=[[0,0.5],[1,0.5]];portConstraint=eastwest;whiteSpace=wrap;html=1;" parent="XnN9rj1mT8MxuUo1-RK2-1" vertex="1">
          <mxGeometry y="198" width="220" height="26" as="geometry" />
        </mxCell>
        <mxCell id="XnN9rj1mT8MxuUo1-RK2-5" value="&lt;font size=&quot;1&quot; color=&quot;#ffffff&quot;&gt;&lt;b style=&quot;font-size: 19px;&quot;&gt;CSP (public Factory)&lt;/b&gt;&lt;/font&gt;" style="swimlane;fontStyle=0;childLayout=stackLayout;horizontal=1;startSize=26;fillColor=#007FFF;horizontalStack=0;resizeParent=1;resizeParentMax=0;resizeLast=0;collapsible=1;marginBottom=0;whiteSpace=wrap;html=1;strokeColor=#007FFF;" parent="1" vertex="1">
          <mxGeometry x="-528" y="-885" width="347" height="52" as="geometry" />
        </mxCell>
        <mxCell id="XnN9rj1mT8MxuUo1-RK2-7" value="OpenRawSignature(vector) : &lt;code class=&quot;lang-cpp&quot;&gt;&lt;span&gt;&lt;span class=&quot;hljs-function&quot;&gt;&lt;span class=&quot;hljs-title&quot;&gt;Message&lt;/span&gt;&lt;span class=&quot;hljs-params&quot;&gt;&lt;/span&gt;&lt;/span&gt;&lt;/span&gt;&lt;/code&gt; " style="text;strokeColor=none;fillColor=none;align=left;verticalAlign=top;spacingLeft=4;spacingRight=4;overflow=hidden;rotatable=0;points=[[0,0.5],[1,0.5]];portConstraint=eastwest;whiteSpace=wrap;html=1;" parent="XnN9rj1mT8MxuUo1-RK2-5" vertex="1">
          <mxGeometry y="26" width="347" height="26" as="geometry" />
        </mxCell>
        <mxCell id="XnN9rj1mT8MxuUo1-RK2-20" value="&lt;font size=&quot;1&quot;&gt;&lt;b style=&quot;font-size: 15px;&quot;&gt;Message&lt;/b&gt;&lt;/font&gt;" style="swimlane;fontStyle=0;childLayout=stackLayout;horizontal=1;startSize=26;fillColor=#007FFF;horizontalStack=0;resizeParent=1;resizeParentMax=0;resizeLast=0;collapsible=1;marginBottom=0;whiteSpace=wrap;html=1;strokeColor=#6c8ebf;fontColor=#FFFFFF;" parent="1" vertex="1">
          <mxGeometry x="-552" y="-764" width="390" height="660" as="geometry" />
        </mxCell>
        <mxCell id="XnN9rj1mT8MxuUo1-RK2-21" value="Message(ResolveSymbols, signarure data, signed data)" style="text;strokeColor=none;fillColor=none;align=left;verticalAlign=top;spacingLeft=4;spacingRight=4;overflow=hidden;rotatable=0;points=[[0,0.5],[1,0.5]];portConstraint=eastwest;whiteSpace=wrap;html=1;" parent="XnN9rj1mT8MxuUo1-RK2-20" vertex="1">
          <mxGeometry y="26" width="390" height="26" as="geometry" />
        </mxCell>
        <mxCell id="XnN9rj1mT8MxuUo1-RK2-22" value="GetCadesTypeEx() : enum CadesType" style="text;strokeColor=none;fillColor=none;align=left;verticalAlign=top;spacingLeft=4;spacingRight=4;overflow=hidden;rotatable=0;points=[[0,0.5],[1,0.5]];portConstraint=eastwest;whiteSpace=wrap;html=1;" parent="XnN9rj1mT8MxuUo1-RK2-20" vertex="1">
          <mxGeometry y="52" width="390" height="26" as="geometry" />
        </mxCell>
        <mxCell id="XnN9rj1mT8MxuUo1-RK2-30" value="GetSignersCount() : optional&amp;lt;uint&amp;gt;" style="text;strokeColor=none;fillColor=none;align=left;verticalAlign=top;spacingLeft=4;spacingRight=4;overflow=hidden;rotatable=0;points=[[0,0.5],[1,0.5]];portConstraint=eastwest;whiteSpace=wrap;html=1;" parent="XnN9rj1mT8MxuUo1-RK2-20" vertex="1">
          <mxGeometry y="78" width="390" height="32" as="geometry" />
        </mxCell>
        <mxCell id="bhYkbU638XciZvY1NUgi-5" value="GetSignerCertId(int index) : CertificateID" style="text;strokeColor=none;fillColor=none;align=left;verticalAlign=top;spacingLeft=4;spacingRight=4;overflow=hidden;rotatable=0;points=[[0,0.5],[1,0.5]];portConstraint=eastwest;whiteSpace=wrap;html=1;" parent="XnN9rj1mT8MxuUo1-RK2-20" vertex="1">
          <mxGeometry y="110" width="390" height="32" as="geometry" />
        </mxCell>
        <mxCell id="zwSKOXCo6LhMHY_lzras-1" value="GetSignersTime(int index) :&amp;nbsp;optional&amp;lt;time_t&amp;gt;" style="text;strokeColor=none;fillColor=none;align=left;verticalAlign=top;spacingLeft=4;spacingRight=4;overflow=hidden;rotatable=0;points=[[0,0.5],[1,0.5]];portConstraint=eastwest;whiteSpace=wrap;html=1;" vertex="1" parent="XnN9rj1mT8MxuUo1-RK2-20">
          <mxGeometry y="142" width="390" height="32" as="geometry" />
        </mxCell>
        <mxCell id="U_N-AK2l_mcDsKYONGYf-13" value="GetRevokedCertsCount() :&amp;nbsp;optional&amp;lt;uint&amp;gt;" style="text;strokeColor=none;fillColor=none;align=left;verticalAlign=top;spacingLeft=4;spacingRight=4;overflow=hidden;rotatable=0;points=[[0,0.5],[1,0.5]];portConstraint=eastwest;whiteSpace=wrap;html=1;" parent="XnN9rj1mT8MxuUo1-RK2-20" vertex="1">
          <mxGeometry y="174" width="390" height="32" as="geometry" />
        </mxCell>
        <mxCell id="zwSKOXCo6LhMHY_lzras-2" value="ComprehensiveCheck(data,index, bool use_ocsp):CheckResult" style="text;strokeColor=none;fillColor=none;align=left;verticalAlign=top;spacingLeft=4;spacingRight=4;overflow=hidden;rotatable=0;points=[[0,0.5],[1,0.5]];portConstraint=eastwest;whiteSpace=wrap;html=1;" vertex="1" parent="XnN9rj1mT8MxuUo1-RK2-20">
          <mxGeometry y="206" width="390" height="26" as="geometry" />
        </mxCell>
        <mxCell id="XnN9rj1mT8MxuUo1-RK2-32" value="Check(data,index, bool use_ocsp):bool" style="text;strokeColor=none;fillColor=none;align=left;verticalAlign=top;spacingLeft=4;spacingRight=4;overflow=hidden;rotatable=0;points=[[0,0.5],[1,0.5]];portConstraint=eastwest;whiteSpace=wrap;html=1;" parent="XnN9rj1mT8MxuUo1-RK2-20" vertex="1">
          <mxGeometry y="232" width="390" height="26" as="geometry" />
        </mxCell>
        <mxCell id="zwSKOXCo6LhMHY_lzras-6" value="CheckAttached (index,bool use_ocsp): bool" style="text;strokeColor=none;fillColor=none;align=left;verticalAlign=top;spacingLeft=4;spacingRight=4;overflow=hidden;rotatable=0;points=[[0,0.5],[1,0.5]];portConstraint=eastwest;whiteSpace=wrap;html=1;" vertex="1" parent="XnN9rj1mT8MxuUo1-RK2-20">
          <mxGeometry y="258" width="390" height="26" as="geometry" />
        </mxCell>
        <mxCell id="zwSKOXCo6LhMHY_lzras-7" value="GetSignedDataHash(index) : BytesVector" style="text;strokeColor=none;fillColor=none;align=left;verticalAlign=top;spacingLeft=4;spacingRight=4;overflow=hidden;rotatable=0;points=[[0,0.5],[1,0.5]];portConstraint=eastwest;whiteSpace=wrap;html=1;" vertex="1" parent="XnN9rj1mT8MxuUo1-RK2-20">
          <mxGeometry y="284" width="390" height="26" as="geometry" />
        </mxCell>
        <mxCell id="zwSKOXCo6LhMHY_lzras-8" value="CalculateDataHash(hash_algo,data) : BytesVector" style="text;strokeColor=none;fillColor=none;align=left;verticalAlign=top;spacingLeft=4;spacingRight=4;overflow=hidden;rotatable=0;points=[[0,0.5],[1,0.5]];portConstraint=eastwest;whiteSpace=wrap;html=1;" vertex="1" parent="XnN9rj1mT8MxuUo1-RK2-20">
          <mxGeometry y="310" width="390" height="26" as="geometry" />
        </mxCell>
        <mxCell id="zwSKOXCo6LhMHY_lzras-9" value="CalculateComputedHash(index) : HashHandler" style="text;strokeColor=none;fillColor=none;align=left;verticalAlign=top;spacingLeft=4;spacingRight=4;overflow=hidden;rotatable=0;points=[[0,0.5],[1,0.5]];portConstraint=eastwest;whiteSpace=wrap;html=1;" vertex="1" parent="XnN9rj1mT8MxuUo1-RK2-20">
          <mxGeometry y="336" width="390" height="26" as="geometry" />
        </mxCell>
        <mxCell id="zwSKOXCo6LhMHY_lzras-10" value="GetRawCertificate(index) : BytesVector" style="text;strokeColor=none;fillColor=none;align=left;verticalAlign=top;spacingLeft=4;spacingRight=4;overflow=hidden;rotatable=0;points=[[0,0.5],[1,0.5]];portConstraint=eastwest;whiteSpace=wrap;html=1;" vertex="1" parent="XnN9rj1mT8MxuUo1-RK2-20">
          <mxGeometry y="362" width="390" height="26" as="geometry" />
        </mxCell>
        <mxCell id="zwSKOXCo6LhMHY_lzras-11" value="GetContentFromAttached() : BytesVector" style="text;strokeColor=none;fillColor=none;align=left;verticalAlign=top;spacingLeft=4;spacingRight=4;overflow=hidden;rotatable=0;points=[[0,0.5],[1,0.5]];portConstraint=eastwest;whiteSpace=wrap;html=1;" vertex="1" parent="XnN9rj1mT8MxuUo1-RK2-20">
          <mxGeometry y="388" width="390" height="26" as="geometry" />
        </mxCell>
        <mxCell id="zwSKOXCo6LhMHY_lzras-12" value="ExtractUnsignedAttributes(index) : AsnObj" style="text;strokeColor=none;fillColor=none;align=left;verticalAlign=top;spacingLeft=4;spacingRight=4;overflow=hidden;rotatable=0;points=[[0,0.5],[1,0.5]];portConstraint=eastwest;whiteSpace=wrap;html=1;" vertex="1" parent="XnN9rj1mT8MxuUo1-RK2-20">
          <mxGeometry y="414" width="390" height="26" as="geometry" />
        </mxCell>
        <mxCell id="zwSKOXCo6LhMHY_lzras-13" value="GetComputedHash(index) : BytesVector" style="text;strokeColor=none;fillColor=none;align=left;verticalAlign=top;spacingLeft=4;spacingRight=4;overflow=hidden;rotatable=0;points=[[0,0.5],[1,0.5]];portConstraint=eastwest;whiteSpace=wrap;html=1;" vertex="1" parent="XnN9rj1mT8MxuUo1-RK2-20">
          <mxGeometry y="440" width="390" height="26" as="geometry" />
        </mxCell>
        <mxCell id="zwSKOXCo6LhMHY_lzras-14" value="CalculateCertHash(index) : HashHandler" style="text;strokeColor=none;fillColor=none;align=left;verticalAlign=top;spacingLeft=4;spacingRight=4;overflow=hidden;rotatable=0;points=[[0,0.5],[1,0.5]];portConstraint=eastwest;whiteSpace=wrap;html=1;" vertex="1" parent="XnN9rj1mT8MxuUo1-RK2-20">
          <mxGeometry y="466" width="390" height="26" as="geometry" />
        </mxCell>
        <mxCell id="zwSKOXCo6LhMHY_lzras-15" value="FindTspCert(Message,index) : Certificate" style="text;strokeColor=none;fillColor=none;align=left;verticalAlign=top;spacingLeft=4;spacingRight=4;overflow=hidden;rotatable=0;points=[[0,0.5],[1,0.5]];portConstraint=eastwest;whiteSpace=wrap;html=1;" vertex="1" parent="XnN9rj1mT8MxuUo1-RK2-20">
          <mxGeometry y="492" width="390" height="26" as="geometry" />
        </mxCell>
        <mxCell id="zwSKOXCo6LhMHY_lzras-16" value="SetExplicitCertForSigner(index,raw_cert) : void" style="text;strokeColor=none;fillColor=none;align=left;verticalAlign=top;spacingLeft=4;spacingRight=4;overflow=hidden;rotatable=0;points=[[0,0.5],[1,0.5]];portConstraint=eastwest;whiteSpace=wrap;html=1;" vertex="1" parent="XnN9rj1mT8MxuUo1-RK2-20">
          <mxGeometry y="518" width="390" height="26" as="geometry" />
        </mxCell>
        <mxCell id="bhYkbU638XciZvY1NUgi-18" value="GetAttributes(index,AttributesType) : CryptoAttibuteBunch" style="text;strokeColor=none;fillColor=none;align=left;verticalAlign=top;spacingLeft=4;spacingRight=4;overflow=hidden;rotatable=0;points=[[0,0.5],[1,0.5]];portConstraint=eastwest;whiteSpace=wrap;html=1;" parent="XnN9rj1mT8MxuUo1-RK2-20" vertex="1">
          <mxGeometry y="544" width="390" height="26" as="geometry" />
        </mxCell>
        <mxCell id="zwSKOXCo6LhMHY_lzras-17" value="GetDataHashingAlgo(index) : string" style="text;strokeColor=none;fillColor=none;align=left;verticalAlign=top;spacingLeft=4;spacingRight=4;overflow=hidden;rotatable=0;points=[[0,0.5],[1,0.5]];portConstraint=eastwest;whiteSpace=wrap;html=1;" vertex="1" parent="XnN9rj1mT8MxuUo1-RK2-20">
          <mxGeometry y="570" width="390" height="30" as="geometry" />
        </mxCell>
        <mxCell id="zwSKOXCo6LhMHY_lzras-19" value="is_tsp_message() : bool" style="text;strokeColor=none;fillColor=none;align=left;verticalAlign=top;spacingLeft=4;spacingRight=4;overflow=hidden;rotatable=0;points=[[0,0.5],[1,0.5]];portConstraint=eastwest;whiteSpace=wrap;html=1;" vertex="1" parent="XnN9rj1mT8MxuUo1-RK2-20">
          <mxGeometry y="600" width="390" height="30" as="geometry" />
        </mxCell>
        <mxCell id="zwSKOXCo6LhMHY_lzras-18" value="SetIsTspMessage(bool) : void" style="text;strokeColor=none;fillColor=none;align=left;verticalAlign=top;spacingLeft=4;spacingRight=4;overflow=hidden;rotatable=0;points=[[0,0.5],[1,0.5]];portConstraint=eastwest;whiteSpace=wrap;html=1;" vertex="1" parent="XnN9rj1mT8MxuUo1-RK2-20">
          <mxGeometry y="630" width="390" height="30" as="geometry" />
        </mxCell>
        <mxCell id="XnN9rj1mT8MxuUo1-RK2-39" value="&lt;b&gt;ResolveSymbols&lt;/b&gt;" style="swimlane;fontStyle=0;childLayout=stackLayout;horizontal=1;startSize=26;fillColor=none;horizontalStack=0;resizeParent=1;resizeParentMax=0;resizeLast=0;collapsible=1;marginBottom=0;whiteSpace=wrap;html=1;" parent="1" vertex="1">
          <mxGeometry x="-106" y="-604" width="140" height="52" as="geometry" />
        </mxCell>
        <mxCell id="XnN9rj1mT8MxuUo1-RK2-46" value="return" style="html=1;verticalAlign=bottom;endArrow=open;dashed=1;endSize=8;curved=0;rounded=0;exitX=0.519;exitY=1.038;exitDx=0;exitDy=0;exitPerimeter=0;entryX=0.529;entryY=0.003;entryDx=0;entryDy=0;entryPerimeter=0;" parent="1" source="XnN9rj1mT8MxuUo1-RK2-7" target="XnN9rj1mT8MxuUo1-RK2-20" edge="1">
          <mxGeometry relative="1" as="geometry">
            <mxPoint x="-112" y="-494" as="sourcePoint" />
            <mxPoint x="-192" y="-494" as="targetPoint" />
          </mxGeometry>
        </mxCell>
        <mxCell id="U_N-AK2l_mcDsKYONGYf-5" value="&lt;b&gt;MessageHandler&lt;/b&gt;" style="swimlane;fontStyle=0;childLayout=stackLayout;horizontal=1;startSize=26;fillColor=none;horizontalStack=0;resizeParent=1;resizeParentMax=0;resizeLast=0;collapsible=1;marginBottom=0;whiteSpace=wrap;html=1;" parent="1" vertex="1">
          <mxGeometry x="-962" y="-767" width="330" height="130" as="geometry" />
        </mxCell>
        <mxCell id="U_N-AK2l_mcDsKYONGYf-6" value="MessageHandler()" style="text;strokeColor=none;fillColor=none;align=left;verticalAlign=top;spacingLeft=4;spacingRight=4;overflow=hidden;rotatable=0;points=[[0,0.5],[1,0.5]];portConstraint=eastwest;whiteSpace=wrap;html=1;" parent="U_N-AK2l_mcDsKYONGYf-5" vertex="1">
          <mxGeometry y="26" width="330" height="26" as="geometry" />
        </mxCell>
        <mxCell id="U_N-AK2l_mcDsKYONGYf-9" value="MessageHandler(handler,dlopen resolver)" style="text;strokeColor=none;fillColor=none;align=left;verticalAlign=top;spacingLeft=4;spacingRight=4;overflow=hidden;rotatable=0;points=[[0,0.5],[1,0.5]];portConstraint=eastwest;whiteSpace=wrap;html=1;" parent="U_N-AK2l_mcDsKYONGYf-5" vertex="1">
          <mxGeometry y="52" width="330" height="26" as="geometry" />
        </mxCell>
        <mxCell id="U_N-AK2l_mcDsKYONGYf-7" value="operator*()" style="text;strokeColor=none;fillColor=none;align=left;verticalAlign=top;spacingLeft=4;spacingRight=4;overflow=hidden;rotatable=0;points=[[0,0.5],[1,0.5]];portConstraint=eastwest;whiteSpace=wrap;html=1;" parent="U_N-AK2l_mcDsKYONGYf-5" vertex="1">
          <mxGeometry y="78" width="330" height="26" as="geometry" />
        </mxCell>
        <mxCell id="U_N-AK2l_mcDsKYONGYf-8" value="operator bool()" style="text;strokeColor=none;fillColor=none;align=left;verticalAlign=top;spacingLeft=4;spacingRight=4;overflow=hidden;rotatable=0;points=[[0,0.5],[1,0.5]];portConstraint=eastwest;whiteSpace=wrap;html=1;" parent="U_N-AK2l_mcDsKYONGYf-5" vertex="1">
          <mxGeometry y="104" width="330" height="26" as="geometry" />
        </mxCell>
        <mxCell id="U_N-AK2l_mcDsKYONGYf-15" value="Use" style="endArrow=open;endSize=12;dashed=1;html=1;rounded=0;entryX=0.411;entryY=-0.067;entryDx=0;entryDy=0;exitX=0.994;exitY=0.019;exitDx=0;exitDy=0;exitPerimeter=0;entryPerimeter=0;" parent="1" source="XnN9rj1mT8MxuUo1-RK2-20" target="XnN9rj1mT8MxuUo1-RK2-39" edge="1">
          <mxGeometry width="160" relative="1" as="geometry">
            <mxPoint x="-292" y="-544" as="sourcePoint" />
            <mxPoint x="-132" y="-544" as="targetPoint" />
          </mxGeometry>
        </mxCell>
        <mxCell id="bhYkbU638XciZvY1NUgi-1" value="&lt;b&gt;CryptoAttibuteBunch&lt;/b&gt;" style="swimlane;fontStyle=0;childLayout=stackLayout;horizontal=1;startSize=26;fillColor=none;horizontalStack=0;resizeParent=1;resizeParentMax=0;resizeLast=0;collapsible=1;marginBottom=0;whiteSpace=wrap;html=1;" parent="1" vertex="1">
          <mxGeometry x="-917" y="-126" width="280" height="104" as="geometry" />
        </mxCell>
        <mxCell id="bhYkbU638XciZvY1NUgi-2" value="CryptoAttibuteBunch(CRYPT_ATTRIBUTES*)" style="text;strokeColor=none;fillColor=none;align=left;verticalAlign=top;spacingLeft=4;spacingRight=4;overflow=hidden;rotatable=0;points=[[0,0.5],[1,0.5]];portConstraint=eastwest;whiteSpace=wrap;html=1;" parent="bhYkbU638XciZvY1NUgi-1" vertex="1">
          <mxGeometry y="26" width="280" height="26" as="geometry" />
        </mxCell>
        <mxCell id="bhYkbU638XciZvY1NUgi-3" value="get_count(): uint" style="text;strokeColor=none;fillColor=none;align=left;verticalAlign=top;spacingLeft=4;spacingRight=4;overflow=hidden;rotatable=0;points=[[0,0.5],[1,0.5]];portConstraint=eastwest;whiteSpace=wrap;html=1;" parent="bhYkbU638XciZvY1NUgi-1" vertex="1">
          <mxGeometry y="52" width="280" height="26" as="geometry" />
        </mxCell>
        <mxCell id="bhYkbU638XciZvY1NUgi-4" value="get_bunch(): vector&amp;lt;CryptoAttribute&amp;gt;" style="text;strokeColor=none;fillColor=none;align=left;verticalAlign=top;spacingLeft=4;spacingRight=4;overflow=hidden;rotatable=0;points=[[0,0.5],[1,0.5]];portConstraint=eastwest;whiteSpace=wrap;html=1;" parent="bhYkbU638XciZvY1NUgi-1" vertex="1">
          <mxGeometry y="78" width="280" height="26" as="geometry" />
        </mxCell>
        <mxCell id="bhYkbU638XciZvY1NUgi-6" value="&lt;b&gt;CertificateID&lt;/b&gt;" style="swimlane;fontStyle=0;childLayout=stackLayout;horizontal=1;startSize=26;fillColor=none;horizontalStack=0;resizeParent=1;resizeParentMax=0;resizeLast=0;collapsible=1;marginBottom=0;whiteSpace=wrap;html=1;" parent="1" vertex="1">
          <mxGeometry x="-772" y="-584" width="140" height="78" as="geometry" />
        </mxCell>
        <mxCell id="bhYkbU638XciZvY1NUgi-7" value="serial: vector&amp;lt;uchar&amp;gt;" style="text;strokeColor=none;fillColor=none;align=left;verticalAlign=top;spacingLeft=4;spacingRight=4;overflow=hidden;rotatable=0;points=[[0,0.5],[1,0.5]];portConstraint=eastwest;whiteSpace=wrap;html=1;" parent="bhYkbU638XciZvY1NUgi-6" vertex="1">
          <mxGeometry y="26" width="140" height="26" as="geometry" />
        </mxCell>
        <mxCell id="bhYkbU638XciZvY1NUgi-8" value="issuer: string" style="text;strokeColor=none;fillColor=none;align=left;verticalAlign=top;spacingLeft=4;spacingRight=4;overflow=hidden;rotatable=0;points=[[0,0.5],[1,0.5]];portConstraint=eastwest;whiteSpace=wrap;html=1;" parent="bhYkbU638XciZvY1NUgi-6" vertex="1">
          <mxGeometry y="52" width="140" height="26" as="geometry" />
        </mxCell>
        <mxCell id="bhYkbU638XciZvY1NUgi-10" value="CryptoAttribute" style="swimlane;fontStyle=0;childLayout=stackLayout;horizontal=1;startSize=26;fillColor=none;horizontalStack=0;resizeParent=1;resizeParentMax=0;resizeLast=0;collapsible=1;marginBottom=0;whiteSpace=wrap;html=1;" parent="1" vertex="1">
          <mxGeometry x="-872" y="44" width="235" height="106" as="geometry" />
        </mxCell>
        <mxCell id="bhYkbU638XciZvY1NUgi-11" value="get_id() : string" style="text;strokeColor=none;fillColor=none;align=left;verticalAlign=top;spacingLeft=4;spacingRight=4;overflow=hidden;rotatable=0;points=[[0,0.5],[1,0.5]];portConstraint=eastwest;whiteSpace=wrap;html=1;" parent="bhYkbU638XciZvY1NUgi-10" vertex="1">
          <mxGeometry y="26" width="235" height="26" as="geometry" />
        </mxCell>
        <mxCell id="bhYkbU638XciZvY1NUgi-12" value="get_blobs_count() : uint" style="text;strokeColor=none;fillColor=none;align=left;verticalAlign=top;spacingLeft=4;spacingRight=4;overflow=hidden;rotatable=0;points=[[0,0.5],[1,0.5]];portConstraint=eastwest;whiteSpace=wrap;html=1;" parent="bhYkbU638XciZvY1NUgi-10" vertex="1">
          <mxGeometry y="52" width="235" height="28" as="geometry" />
        </mxCell>
        <mxCell id="bhYkbU638XciZvY1NUgi-13" value="get_blobs() :vector&amp;lt;BytesVector&amp;gt;" style="text;strokeColor=none;fillColor=none;align=left;verticalAlign=top;spacingLeft=4;spacingRight=4;overflow=hidden;rotatable=0;points=[[0,0.5],[1,0.5]];portConstraint=eastwest;whiteSpace=wrap;html=1;" parent="bhYkbU638XciZvY1NUgi-10" vertex="1">
          <mxGeometry y="80" width="235" height="26" as="geometry" />
        </mxCell>
        <mxCell id="bhYkbU638XciZvY1NUgi-17" value="return" style="html=1;verticalAlign=bottom;endArrow=open;dashed=1;endSize=8;curved=0;rounded=0;exitX=0;exitY=0.5;exitDx=0;exitDy=0;entryX=0.992;entryY=0.153;entryDx=0;entryDy=0;entryPerimeter=0;" parent="1" source="bhYkbU638XciZvY1NUgi-5" target="bhYkbU638XciZvY1NUgi-6" edge="1">
          <mxGeometry relative="1" as="geometry">
            <mxPoint x="-242" y="-414" as="sourcePoint" />
            <mxPoint x="-322" y="-414" as="targetPoint" />
          </mxGeometry>
        </mxCell>
        <mxCell id="bhYkbU638XciZvY1NUgi-19" value="return" style="html=1;verticalAlign=bottom;endArrow=open;dashed=1;endSize=8;curved=0;rounded=0;exitX=0;exitY=0.5;exitDx=0;exitDy=0;entryX=1;entryY=0.5;entryDx=0;entryDy=0;" parent="1" source="bhYkbU638XciZvY1NUgi-18" target="bhYkbU638XciZvY1NUgi-2" edge="1">
          <mxGeometry relative="1" as="geometry">
            <mxPoint x="-62" y="-598" as="sourcePoint" />
            <mxPoint x="22" y="-441" as="targetPoint" />
          </mxGeometry>
        </mxCell>
        <mxCell id="bhYkbU638XciZvY1NUgi-54" value="Use" style="endArrow=open;endSize=12;dashed=1;html=1;rounded=0;entryX=0;entryY=0.5;entryDx=0;entryDy=0;exitX=1.006;exitY=0.025;exitDx=0;exitDy=0;exitPerimeter=0;" parent="1" source="XnN9rj1mT8MxuUo1-RK2-20" target="TuwQGfYTJdxtwAWuolRP-1" edge="1">
          <mxGeometry width="160" relative="1" as="geometry">
            <mxPoint x="640" y="-420" as="sourcePoint" />
            <mxPoint x="371.8109999999997" y="-899.1389999999999" as="targetPoint" />
          </mxGeometry>
        </mxCell>
        <mxCell id="zwSKOXCo6LhMHY_lzras-5" value="" style="endArrow=diamondThin;endFill=1;endSize=24;html=1;rounded=0;exitX=1;exitY=0.5;exitDx=0;exitDy=0;entryX=0;entryY=0.03;entryDx=0;entryDy=0;entryPerimeter=0;" edge="1" parent="1" source="U_N-AK2l_mcDsKYONGYf-6" target="XnN9rj1mT8MxuUo1-RK2-20">
          <mxGeometry width="160" relative="1" as="geometry">
            <mxPoint x="-232" y="-544" as="sourcePoint" />
            <mxPoint x="-72" y="-544" as="targetPoint" />
          </mxGeometry>
        </mxCell>
        <mxCell id="zwSKOXCo6LhMHY_lzras-43" value="" style="endArrow=diamondThin;endFill=1;endSize=24;html=1;rounded=0;exitX=0.5;exitY=0;exitDx=0;exitDy=0;" edge="1" parent="1" source="bhYkbU638XciZvY1NUgi-10" target="bhYkbU638XciZvY1NUgi-4">
          <mxGeometry width="160" relative="1" as="geometry">
            <mxPoint x="-132" y="-170" as="sourcePoint" />
            <mxPoint x="28" y="-170" as="targetPoint" />
          </mxGeometry>
        </mxCell>
        <mxCell id="zwSKOXCo6LhMHY_lzras-295" value="&lt;b&gt;HashHandler&lt;/b&gt;" style="swimlane;fontStyle=0;childLayout=stackLayout;horizontal=1;startSize=26;fillColor=none;horizontalStack=0;resizeParent=1;resizeParentMax=0;resizeLast=0;collapsible=1;marginBottom=0;whiteSpace=wrap;html=1;" vertex="1" parent="1">
          <mxGeometry x="-1015" y="-432" width="378" height="156" as="geometry" />
        </mxCell>
        <mxCell id="zwSKOXCo6LhMHY_lzras-296" value="+ HashHandler(hashing_algo:string, ResolveSymbols)" style="text;strokeColor=none;fillColor=none;align=left;verticalAlign=top;spacingLeft=4;spacingRight=4;overflow=hidden;rotatable=0;points=[[0,0.5],[1,0.5]];portConstraint=eastwest;whiteSpace=wrap;html=1;" vertex="1" parent="zwSKOXCo6LhMHY_lzras-295">
          <mxGeometry y="26" width="378" height="26" as="geometry" />
        </mxCell>
        <mxCell id="zwSKOXCo6LhMHY_lzras-297" value="+ SetData(data:BytesVector) : void" style="text;strokeColor=none;fillColor=none;align=left;verticalAlign=top;spacingLeft=4;spacingRight=4;overflow=hidden;rotatable=0;points=[[0,0.5],[1,0.5]];portConstraint=eastwest;whiteSpace=wrap;html=1;" vertex="1" parent="zwSKOXCo6LhMHY_lzras-295">
          <mxGeometry y="52" width="378" height="26" as="geometry" />
        </mxCell>
        <mxCell id="zwSKOXCo6LhMHY_lzras-299" value="+ GetValue() : BytesVector" style="text;strokeColor=none;fillColor=none;align=left;verticalAlign=top;spacingLeft=4;spacingRight=4;overflow=hidden;rotatable=0;points=[[0,0.5],[1,0.5]];portConstraint=eastwest;whiteSpace=wrap;html=1;" vertex="1" parent="zwSKOXCo6LhMHY_lzras-295">
          <mxGeometry y="78" width="378" height="26" as="geometry" />
        </mxCell>
        <mxCell id="zwSKOXCo6LhMHY_lzras-300" value="+ get_csp_hanler() : HCRYPTPROV (CryptoApi)" style="text;strokeColor=none;fillColor=none;align=left;verticalAlign=top;spacingLeft=4;spacingRight=4;overflow=hidden;rotatable=0;points=[[0,0.5],[1,0.5]];portConstraint=eastwest;whiteSpace=wrap;html=1;" vertex="1" parent="zwSKOXCo6LhMHY_lzras-295">
          <mxGeometry y="104" width="378" height="26" as="geometry" />
        </mxCell>
        <mxCell id="zwSKOXCo6LhMHY_lzras-301" value="+ get_hash_handler() : HCRYPTHASH (CryptoApi)" style="text;strokeColor=none;fillColor=none;align=left;verticalAlign=top;spacingLeft=4;spacingRight=4;overflow=hidden;rotatable=0;points=[[0,0.5],[1,0.5]];portConstraint=eastwest;whiteSpace=wrap;html=1;" vertex="1" parent="zwSKOXCo6LhMHY_lzras-295">
          <mxGeometry y="130" width="378" height="26" as="geometry" />
        </mxCell>
        <mxCell id="zwSKOXCo6LhMHY_lzras-302" value="use" style="html=1;verticalAlign=bottom;endArrow=open;dashed=1;endSize=8;curved=0;rounded=0;exitX=1;exitY=0.5;exitDx=0;exitDy=0;entryX=0.5;entryY=0;entryDx=0;entryDy=0;" edge="1" parent="1" source="zwSKOXCo6LhMHY_lzras-2" target="mNECVM-PnOxXxI3Q1h0U-1">
          <mxGeometry relative="1" as="geometry">
            <mxPoint x="-78" y="-326" as="sourcePoint" />
            <mxPoint x="501" y="-284" as="targetPoint" />
          </mxGeometry>
        </mxCell>
        <mxCell id="zwSKOXCo6LhMHY_lzras-303" value="return" style="html=1;verticalAlign=bottom;endArrow=open;dashed=1;endSize=8;curved=0;rounded=0;exitX=0;exitY=0.5;exitDx=0;exitDy=0;entryX=1.002;entryY=0.092;entryDx=0;entryDy=0;entryPerimeter=0;" edge="1" parent="1" source="zwSKOXCo6LhMHY_lzras-9" target="zwSKOXCo6LhMHY_lzras-295">
          <mxGeometry relative="1" as="geometry">
            <mxPoint x="-204" y="-340" as="sourcePoint" />
            <mxPoint x="-284" y="-340" as="targetPoint" />
          </mxGeometry>
        </mxCell>
        <mxCell id="zwSKOXCo6LhMHY_lzras-304" value="return" style="html=1;verticalAlign=bottom;endArrow=open;dashed=1;endSize=8;curved=0;rounded=0;entryX=0.991;entryY=0.109;entryDx=0;entryDy=0;entryPerimeter=0;exitX=0;exitY=0.5;exitDx=0;exitDy=0;" edge="1" parent="1" source="zwSKOXCo6LhMHY_lzras-14" target="zwSKOXCo6LhMHY_lzras-295">
          <mxGeometry relative="1" as="geometry">
            <mxPoint x="-137" y="-318" as="sourcePoint" />
            <mxPoint x="-284" y="-340" as="targetPoint" />
          </mxGeometry>
        </mxCell>
        <mxCell id="zwSKOXCo6LhMHY_lzras-307" value="&lt;b&gt;csp::utils::message&lt;/b&gt;" style="swimlane;fontStyle=0;childLayout=stackLayout;horizontal=1;startSize=26;fillColor=none;horizontalStack=0;resizeParent=1;resizeParentMax=0;resizeLast=0;collapsible=1;marginBottom=0;whiteSpace=wrap;html=1;" vertex="1" parent="1">
          <mxGeometry x="-595" y="-27" width="620" height="286" as="geometry" />
        </mxCell>
        <mxCell id="zwSKOXCo6LhMHY_lzras-308" value="InternalCadesTypeToCspType(enum CadesType) :int" style="text;strokeColor=none;fillColor=none;align=left;verticalAlign=top;spacingLeft=4;spacingRight=4;overflow=hidden;rotatable=0;points=[[0,0.5],[1,0.5]];portConstraint=eastwest;whiteSpace=wrap;html=1;" vertex="1" parent="zwSKOXCo6LhMHY_lzras-307">
          <mxGeometry y="26" width="620" height="26" as="geometry" />
        </mxCell>
        <mxCell id="zwSKOXCo6LhMHY_lzras-309" value="InternalCadesTypeToString (enum CadesType ) :int" style="text;strokeColor=none;fillColor=none;align=left;verticalAlign=top;spacingLeft=4;spacingRight=4;overflow=hidden;rotatable=0;points=[[0,0.5],[1,0.5]];portConstraint=eastwest;whiteSpace=wrap;html=1;" vertex="1" parent="zwSKOXCo6LhMHY_lzras-307">
          <mxGeometry y="52" width="620" height="26" as="geometry" />
        </mxCell>
        <mxCell id="zwSKOXCo6LhMHY_lzras-310" value="FindSigContentIndex(AsnObj root_sig_asn) : uint64_t" style="text;strokeColor=none;fillColor=none;align=left;verticalAlign=top;spacingLeft=4;spacingRight=4;overflow=hidden;rotatable=0;points=[[0,0.5],[1,0.5]];portConstraint=eastwest;whiteSpace=wrap;html=1;" vertex="1" parent="zwSKOXCo6LhMHY_lzras-307">
          <mxGeometry y="78" width="620" height="26" as="geometry" />
        </mxCell>
        <mxCell id="zwSKOXCo6LhMHY_lzras-311" value="FindSignerInfosIndex(AsnObj signed_data) : uint64_t" style="text;strokeColor=none;fillColor=none;align=left;verticalAlign=top;spacingLeft=4;spacingRight=4;overflow=hidden;rotatable=0;points=[[0,0.5],[1,0.5]];portConstraint=eastwest;whiteSpace=wrap;html=1;" vertex="1" parent="zwSKOXCo6LhMHY_lzras-307">
          <mxGeometry y="104" width="620" height="26" as="geometry" />
        </mxCell>
        <mxCell id="zwSKOXCo6LhMHY_lzras-312" value="FindOcspLinksInAuthorityInfo(AsnObj authority_info) : uint64_t" style="text;strokeColor=none;fillColor=none;align=left;verticalAlign=top;spacingLeft=4;spacingRight=4;overflow=hidden;rotatable=0;points=[[0,0.5],[1,0.5]];portConstraint=eastwest;whiteSpace=wrap;html=1;" vertex="1" parent="zwSKOXCo6LhMHY_lzras-307">
          <mxGeometry y="130" width="620" height="26" as="geometry" />
        </mxCell>
        <mxCell id="zwSKOXCo6LhMHY_lzras-313" value="CountAttributesWithOid(CryptoAttributesBunch, string oid) : uint64_t" style="text;strokeColor=none;fillColor=none;align=left;verticalAlign=top;spacingLeft=4;spacingRight=4;overflow=hidden;rotatable=0;points=[[0,0.5],[1,0.5]];portConstraint=eastwest;whiteSpace=wrap;html=1;" vertex="1" parent="zwSKOXCo6LhMHY_lzras-307">
          <mxGeometry y="156" width="620" height="26" as="geometry" />
        </mxCell>
        <mxCell id="zwSKOXCo6LhMHY_lzras-315" value="ExtractAsnSignersInfo (index, raw_sinature) : AsnObj" style="text;strokeColor=none;fillColor=none;align=left;verticalAlign=top;spacingLeft=4;spacingRight=4;overflow=hidden;rotatable=0;points=[[0,0.5],[1,0.5]];portConstraint=eastwest;whiteSpace=wrap;html=1;" vertex="1" parent="zwSKOXCo6LhMHY_lzras-307">
          <mxGeometry y="182" width="620" height="26" as="geometry" />
        </mxCell>
        <mxCell id="zwSKOXCo6LhMHY_lzras-316" value="CopyRawAttributeExceptAsnHeader (AsnObj attributes, string oid, destanation) : void" style="text;strokeColor=none;fillColor=none;align=left;verticalAlign=top;spacingLeft=4;spacingRight=4;overflow=hidden;rotatable=0;points=[[0,0.5],[1,0.5]];portConstraint=eastwest;whiteSpace=wrap;html=1;" vertex="1" parent="zwSKOXCo6LhMHY_lzras-307">
          <mxGeometry y="208" width="620" height="26" as="geometry" />
        </mxCell>
        <mxCell id="zwSKOXCo6LhMHY_lzras-317" value="ExtractCertRefs (CryptoAttributesBunch unsigned_attributes) : vector&amp;lt;OtherCertID&amp;gt;" style="text;strokeColor=none;fillColor=none;align=left;verticalAlign=top;spacingLeft=4;spacingRight=4;overflow=hidden;rotatable=0;points=[[0,0.5],[1,0.5]];portConstraint=eastwest;whiteSpace=wrap;html=1;" vertex="1" parent="zwSKOXCo6LhMHY_lzras-307">
          <mxGeometry y="234" width="620" height="26" as="geometry" />
        </mxCell>
        <mxCell id="zwSKOXCo6LhMHY_lzras-318" value="ExtractRevocRefs (CryptoAttributesBunch unsigned_attributes) : vector&amp;lt;OtherCertID&amp;gt;" style="text;strokeColor=none;fillColor=none;align=left;verticalAlign=top;spacingLeft=4;spacingRight=4;overflow=hidden;rotatable=0;points=[[0,0.5],[1,0.5]];portConstraint=eastwest;whiteSpace=wrap;html=1;" vertex="1" parent="zwSKOXCo6LhMHY_lzras-307">
          <mxGeometry y="260" width="620" height="26" as="geometry" />
        </mxCell>
        <mxCell id="zwSKOXCo6LhMHY_lzras-319" value="Use" style="endArrow=open;endSize=12;dashed=1;html=1;rounded=0;exitX=0.5;exitY=1;exitDx=0;exitDy=0;entryX=0.904;entryY=-0.013;entryDx=0;entryDy=0;entryPerimeter=0;" edge="1" parent="1" source="mNECVM-PnOxXxI3Q1h0U-1" target="zwSKOXCo6LhMHY_lzras-307">
          <mxGeometry width="160" relative="1" as="geometry">
            <mxPoint x="831" y="-108" as="sourcePoint" />
            <mxPoint x="-36" y="215" as="targetPoint" />
          </mxGeometry>
        </mxCell>
        <mxCell id="zwSKOXCo6LhMHY_lzras-320" value="Use" style="endArrow=open;endSize=12;dashed=1;html=1;rounded=0;exitX=0.52;exitY=1.089;exitDx=0;exitDy=0;entryX=0.398;entryY=0.01;entryDx=0;entryDy=0;exitPerimeter=0;entryPerimeter=0;" edge="1" parent="1" source="zwSKOXCo6LhMHY_lzras-18" target="zwSKOXCo6LhMHY_lzras-307">
          <mxGeometry width="160" relative="1" as="geometry">
            <mxPoint x="-299" y="142" as="sourcePoint" />
            <mxPoint x="-139" y="142" as="targetPoint" />
          </mxGeometry>
        </mxCell>
        <UserObject label="&lt;b&gt;&lt;font style=&quot;font-size: 26px;&quot;&gt;Strategy&lt;/font&gt;&lt;/b&gt;" link="data:page/id,0wh_hYcdUtD7hr8H2msW" id="mNECVM-PnOxXxI3Q1h0U-1">
          <mxCell style="html=1;whiteSpace=wrap;fillColor=#b0e3e6;strokeColor=#0e8088;" vertex="1" parent="1">
            <mxGeometry x="-110" y="-348" width="144" height="88" as="geometry" />
          </mxCell>
        </UserObject>
        <UserObject label="&lt;b&gt;&lt;font style=&quot;font-size: 26px;&quot;&gt;ASN1 Parser&lt;/font&gt;&lt;/b&gt;" link="data:page/id,K9csmy32tpbCSeU4OQ-h" id="TuwQGfYTJdxtwAWuolRP-1">
          <mxCell style="html=1;whiteSpace=wrap;fillColor=#fff2cc;gradientColor=#ffd966;strokeColor=#d6b656;" vertex="1" parent="1">
            <mxGeometry x="-50" y="-753" width="192" height="87" as="geometry" />
          </mxCell>
        </UserObject>
        <mxCell id="zQ6Zh-LRX63uPkYwRXr8-1" value="&lt;b&gt;CheckResult&lt;/b&gt; " style="html=1;whiteSpace=wrap;container=0;" vertex="1" parent="1">
          <mxGeometry x="101" y="-329" width="110" height="50" as="geometry" />
        </mxCell>
        <mxCell id="zQ6Zh-LRX63uPkYwRXr8-2" value="return" style="html=1;verticalAlign=bottom;endArrow=open;dashed=1;endSize=8;curved=0;rounded=0;exitX=1;exitY=0.5;exitDx=0;exitDy=0;entryX=0;entryY=0.5;entryDx=0;entryDy=0;" edge="1" parent="1" source="mNECVM-PnOxXxI3Q1h0U-1" target="zQ6Zh-LRX63uPkYwRXr8-1">
          <mxGeometry relative="1" as="geometry">
            <mxPoint x="-366" y="-156" as="sourcePoint" />
            <mxPoint x="76" y="-304" as="targetPoint" />
          </mxGeometry>
        </mxCell>
        <UserObject label="&lt;b&gt;&lt;font style=&quot;font-size: 19px;&quot;&gt;Certificate&amp;nbsp; value&lt;/font&gt;&lt;/b&gt;" link="data:page/id,1bFHnAT85-PuNNmaz-Uw" id="GvDOIOZbRuflXxQ-ZOLC-1">
          <mxCell style="html=1;whiteSpace=wrap;fillColor=#d5e8d4;strokeColor=#82b366;" vertex="1" parent="1">
            <mxGeometry x="-850.5" y="-230" width="192" height="50" as="geometry" />
          </mxCell>
        </UserObject>
        <mxCell id="GvDOIOZbRuflXxQ-ZOLC-2" value="return" style="html=1;verticalAlign=bottom;endArrow=open;dashed=1;endSize=8;curved=0;rounded=0;exitX=0;exitY=0.5;exitDx=0;exitDy=0;entryX=1;entryY=0.5;entryDx=0;entryDy=0;" edge="1" parent="1" source="zwSKOXCo6LhMHY_lzras-15" target="GvDOIOZbRuflXxQ-ZOLC-1">
          <mxGeometry relative="1" as="geometry">
            <mxPoint x="-263" y="-73" as="sourcePoint" />
            <mxPoint x="-343" y="-73" as="targetPoint" />
          </mxGeometry>
        </mxCell>
        <mxCell id="GvDOIOZbRuflXxQ-ZOLC-4" value="&lt;b&gt;&lt;font style=&quot;font-size: 26px;&quot;&gt;Crypto Message&lt;/font&gt;&lt;/b&gt;" style="shape=umlFrame;whiteSpace=wrap;html=1;pointerEvents=0;recursiveResize=0;container=1;collapsible=0;width=254;height=39;" vertex="1" parent="1">
          <mxGeometry x="-1040" y="-819" width="1278" height="1131" as="geometry" />
        </mxCell>
      </root>
    </mxGraphModel>
  </diagram>
  <diagram id="1bFHnAT85-PuNNmaz-Uw" name="Certifiate Value">
    <mxGraphModel dx="3434" dy="1495" grid="0" gridSize="10" guides="1" tooltips="1" connect="1" arrows="1" fold="1" page="1" pageScale="1" pageWidth="827" pageHeight="1169" math="0" shadow="0">
      <root>
        <mxCell id="0" />
        <mxCell id="1" parent="0" />
        <mxCell id="e8PUX0k7FOR9Y6vsYKtQ-1" value="&lt;b&gt;&lt;font style=&quot;font-size: 26px;&quot;&gt;Certificate&amp;nbsp; value&lt;/font&gt;&lt;/b&gt;" style="shape=umlFrame;whiteSpace=wrap;html=1;pointerEvents=0;recursiveResize=0;container=1;collapsible=0;width=279;height=45;strokeWidth=2;fillColor=#d5e8d4;strokeColor=#82b366;" vertex="1" parent="1">
          <mxGeometry x="-763" y="57" width="1654" height="710" as="geometry" />
        </mxCell>
        <mxCell id="e8PUX0k7FOR9Y6vsYKtQ-2" value="&lt;b&gt;csp::utils::cert&lt;/b&gt;" style="swimlane;fontStyle=0;childLayout=stackLayout;horizontal=1;startSize=26;fillColor=none;horizontalStack=0;resizeParent=1;resizeParentMax=0;resizeLast=0;collapsible=1;marginBottom=0;whiteSpace=wrap;html=1;" vertex="1" parent="e8PUX0k7FOR9Y6vsYKtQ-1">
          <mxGeometry x="1056" y="87" width="542" height="420" as="geometry" />
        </mxCell>
        <mxCell id="e8PUX0k7FOR9Y6vsYKtQ-3" value="CreateCertChain(cert_context, ResolvedSymbols) : CHAIN_CONTEXT* (CryptoApi)" style="text;strokeColor=none;fillColor=none;align=left;verticalAlign=top;spacingLeft=4;spacingRight=4;overflow=hidden;rotatable=0;points=[[0,0.5],[1,0.5]];portConstraint=eastwest;whiteSpace=wrap;html=1;" vertex="1" parent="e8PUX0k7FOR9Y6vsYKtQ-2">
          <mxGeometry y="26" width="542" height="26" as="geometry" />
        </mxCell>
        <mxCell id="e8PUX0k7FOR9Y6vsYKtQ-4" value="FreeChainContext(CHAIN_CONTEXT*,ResolvedSymbols) : void " style="text;strokeColor=none;fillColor=none;align=left;verticalAlign=top;spacingLeft=4;spacingRight=4;overflow=hidden;rotatable=0;points=[[0,0.5],[1,0.5]];portConstraint=eastwest;whiteSpace=wrap;html=1;" vertex="1" parent="e8PUX0k7FOR9Y6vsYKtQ-2">
          <mxGeometry y="52" width="542" height="26" as="geometry" />
        </mxCell>
        <mxCell id="e8PUX0k7FOR9Y6vsYKtQ-5" value="CheckCertChain( CHAIN_CONTEXT*,bool ignore_revoc_check, ResolvedSymbols)" style="text;strokeColor=none;fillColor=none;align=left;verticalAlign=top;spacingLeft=4;spacingRight=4;overflow=hidden;rotatable=0;points=[[0,0.5],[1,0.5]];portConstraint=eastwest;whiteSpace=wrap;html=1;" vertex="1" parent="e8PUX0k7FOR9Y6vsYKtQ-2">
          <mxGeometry y="78" width="542" height="26" as="geometry" />
        </mxCell>
        <mxCell id="e8PUX0k7FOR9Y6vsYKtQ-6" value="GetRootCertificateCtxFromChain( CHAIN_CONTEXT*) : CERT_CONTEXT* (CryptoApi)" style="text;strokeColor=none;fillColor=none;align=left;verticalAlign=top;spacingLeft=4;spacingRight=4;overflow=hidden;rotatable=0;points=[[0,0.5],[1,0.5]];portConstraint=eastwest;whiteSpace=wrap;html=1;" vertex="1" parent="e8PUX0k7FOR9Y6vsYKtQ-2">
          <mxGeometry y="104" width="542" height="26" as="geometry" />
        </mxCell>
        <mxCell id="e8PUX0k7FOR9Y6vsYKtQ-7" value="CertificateHasOcspNocheck(CERT_CONTEXT*) : bool" style="text;strokeColor=none;fillColor=none;align=left;verticalAlign=top;spacingLeft=4;spacingRight=4;overflow=hidden;rotatable=0;points=[[0,0.5],[1,0.5]];portConstraint=eastwest;whiteSpace=wrap;html=1;" vertex="1" parent="e8PUX0k7FOR9Y6vsYKtQ-2">
          <mxGeometry y="130" width="542" height="26" as="geometry" />
        </mxCell>
        <mxCell id="e8PUX0k7FOR9Y6vsYKtQ-8" value="CertificateHasExtendedKeyUsage(CERT_CONTEXT*, string oid_usage) : bool" style="text;strokeColor=none;fillColor=none;align=left;verticalAlign=top;spacingLeft=4;spacingRight=4;overflow=hidden;rotatable=0;points=[[0,0.5],[1,0.5]];portConstraint=eastwest;whiteSpace=wrap;html=1;" vertex="1" parent="e8PUX0k7FOR9Y6vsYKtQ-2">
          <mxGeometry y="156" width="542" height="26" as="geometry" />
        </mxCell>
        <mxCell id="e8PUX0k7FOR9Y6vsYKtQ-9" value="CertificateHasKeyUsageBit(CERT_CONTEXT*, uint8_t bit_number ) : bool" style="text;strokeColor=none;fillColor=none;align=left;verticalAlign=top;spacingLeft=4;spacingRight=4;overflow=hidden;rotatable=0;points=[[0,0.5],[1,0.5]];portConstraint=eastwest;whiteSpace=wrap;html=1;" vertex="1" parent="e8PUX0k7FOR9Y6vsYKtQ-2">
          <mxGeometry y="182" width="542" height="26" as="geometry" />
        </mxCell>
        <mxCell id="e8PUX0k7FOR9Y6vsYKtQ-10" value="FindCertInStoreByID(CertificateID, wstring storage, ResolvedSymbols) : Certificate" style="text;strokeColor=none;fillColor=none;align=left;verticalAlign=top;spacingLeft=4;spacingRight=4;overflow=hidden;rotatable=0;points=[[0,0.5],[1,0.5]];portConstraint=eastwest;whiteSpace=wrap;html=1;" vertex="1" parent="e8PUX0k7FOR9Y6vsYKtQ-2">
          <mxGeometry y="208" width="542" height="26" as="geometry" />
        </mxCell>
        <mxCell id="e8PUX0k7FOR9Y6vsYKtQ-11" value="GetOCSPResponseOnline(CHAIN_CONTEXT*, ResolvedSymbols): OCSPResponse" style="text;strokeColor=none;fillColor=none;align=left;verticalAlign=top;spacingLeft=4;spacingRight=4;overflow=hidden;rotatable=0;points=[[0,0.5],[1,0.5]];portConstraint=eastwest;whiteSpace=wrap;html=1;" vertex="1" parent="e8PUX0k7FOR9Y6vsYKtQ-2">
          <mxGeometry y="234" width="542" height="26" as="geometry" />
        </mxCell>
        <mxCell id="e8PUX0k7FOR9Y6vsYKtQ-12" value="CompareRootSubjectsForTwoChains(CHAIN_CONTEXT*, CHAIN_CONTEXT*): bool" style="text;strokeColor=none;fillColor=none;align=left;verticalAlign=top;spacingLeft=4;spacingRight=4;overflow=hidden;rotatable=0;points=[[0,0.5],[1,0.5]];portConstraint=eastwest;whiteSpace=wrap;html=1;" vertex="1" parent="e8PUX0k7FOR9Y6vsYKtQ-2">
          <mxGeometry y="260" width="542" height="26" as="geometry" />
        </mxCell>
        <mxCell id="e8PUX0k7FOR9Y6vsYKtQ-13" value="CheckOCSPResponseStatusForCert(OCSPResponse, CERT_CONTEXT)" style="text;strokeColor=none;fillColor=none;align=left;verticalAlign=top;spacingLeft=4;spacingRight=4;overflow=hidden;rotatable=0;points=[[0,0.5],[1,0.5]];portConstraint=eastwest;whiteSpace=wrap;html=1;" vertex="1" parent="e8PUX0k7FOR9Y6vsYKtQ-2">
          <mxGeometry y="286" width="542" height="26" as="geometry" />
        </mxCell>
        <mxCell id="e8PUX0k7FOR9Y6vsYKtQ-14" value="VerifyOCSPResponseSignature(OCSPResponse, CERT_CONTEXT, ResolvedSymbols) : bool" style="text;strokeColor=none;fillColor=none;align=left;verticalAlign=top;spacingLeft=4;spacingRight=4;overflow=hidden;rotatable=0;points=[[0,0.5],[1,0.5]];portConstraint=eastwest;whiteSpace=wrap;html=1;" vertex="1" parent="e8PUX0k7FOR9Y6vsYKtQ-2">
          <mxGeometry y="312" width="542" height="26" as="geometry" />
        </mxCell>
        <mxCell id="e8PUX0k7FOR9Y6vsYKtQ-15" value="GetOcspResponseAndContext(PCCERT_CHAIN_CONTEXT, ResolvedSymbols) : pair&amp;lt;CHAIN_CONTEXT*,ResolvedSymbols&amp;gt;" style="text;strokeColor=none;fillColor=none;align=left;verticalAlign=top;spacingLeft=4;spacingRight=4;overflow=hidden;rotatable=0;points=[[0,0.5],[1,0.5]];portConstraint=eastwest;whiteSpace=wrap;html=1;" vertex="1" parent="e8PUX0k7FOR9Y6vsYKtQ-2">
          <mxGeometry y="338" width="542" height="41" as="geometry" />
        </mxCell>
        <mxCell id="e8PUX0k7FOR9Y6vsYKtQ-16" value="FreeOcspResponseAndContext(PCCERT_CHAIN_CONTEXT, ResolvedSymbols) : pair&amp;lt;CHAIN_CONTEXT*,ResolvedSymbols&amp;gt;" style="text;strokeColor=none;fillColor=none;align=left;verticalAlign=top;spacingLeft=4;spacingRight=4;overflow=hidden;rotatable=0;points=[[0,0.5],[1,0.5]];portConstraint=eastwest;whiteSpace=wrap;html=1;" vertex="1" parent="e8PUX0k7FOR9Y6vsYKtQ-2">
          <mxGeometry y="379" width="542" height="41" as="geometry" />
        </mxCell>
        <mxCell id="e8PUX0k7FOR9Y6vsYKtQ-17" value="&lt;b&gt;Certificate&lt;/b&gt;" style="swimlane;fontStyle=0;childLayout=stackLayout;horizontal=1;startSize=26;fillColor=none;horizontalStack=0;resizeParent=1;resizeParentMax=0;resizeLast=0;collapsible=1;marginBottom=0;whiteSpace=wrap;html=1;" vertex="1" parent="e8PUX0k7FOR9Y6vsYKtQ-1">
          <mxGeometry x="655" y="87" width="260" height="286" as="geometry" />
        </mxCell>
        <mxCell id="e8PUX0k7FOR9Y6vsYKtQ-18" value="IsTimeValid() : bool" style="text;strokeColor=none;fillColor=none;align=left;verticalAlign=top;spacingLeft=4;spacingRight=4;overflow=hidden;rotatable=0;points=[[0,0.5],[1,0.5]];portConstraint=eastwest;whiteSpace=wrap;html=1;" vertex="1" parent="e8PUX0k7FOR9Y6vsYKtQ-17">
          <mxGeometry y="26" width="260" height="26" as="geometry" />
        </mxCell>
        <mxCell id="e8PUX0k7FOR9Y6vsYKtQ-19" value="IsChainOK() : type" style="text;strokeColor=none;fillColor=none;align=left;verticalAlign=top;spacingLeft=4;spacingRight=4;overflow=hidden;rotatable=0;points=[[0,0.5],[1,0.5]];portConstraint=eastwest;whiteSpace=wrap;html=1;" vertex="1" parent="e8PUX0k7FOR9Y6vsYKtQ-17">
          <mxGeometry y="52" width="260" height="26" as="geometry" />
        </mxCell>
        <mxCell id="e8PUX0k7FOR9Y6vsYKtQ-20" value="IsOcspStatusOK() : bool" style="text;strokeColor=none;fillColor=none;align=left;verticalAlign=top;spacingLeft=4;spacingRight=4;overflow=hidden;rotatable=0;points=[[0,0.5],[1,0.5]];portConstraint=eastwest;whiteSpace=wrap;html=1;" vertex="1" parent="e8PUX0k7FOR9Y6vsYKtQ-17">
          <mxGeometry y="78" width="260" height="26" as="geometry" />
        </mxCell>
        <mxCell id="e8PUX0k7FOR9Y6vsYKtQ-21" value="GetContext() : CERT_CONTEXT*" style="text;strokeColor=none;fillColor=none;align=left;verticalAlign=top;spacingLeft=4;spacingRight=4;overflow=hidden;rotatable=0;points=[[0,0.5],[1,0.5]];portConstraint=eastwest;whiteSpace=wrap;html=1;" vertex="1" parent="e8PUX0k7FOR9Y6vsYKtQ-17">
          <mxGeometry y="104" width="260" height="26" as="geometry" />
        </mxCell>
        <mxCell id="e8PUX0k7FOR9Y6vsYKtQ-22" value="GetTimeBounds() : CertTimeBounds" style="text;strokeColor=none;fillColor=none;align=left;verticalAlign=top;spacingLeft=4;spacingRight=4;overflow=hidden;rotatable=0;points=[[0,0.5],[1,0.5]];portConstraint=eastwest;whiteSpace=wrap;html=1;" vertex="1" parent="e8PUX0k7FOR9Y6vsYKtQ-17">
          <mxGeometry y="130" width="260" height="26" as="geometry" />
        </mxCell>
        <mxCell id="e8PUX0k7FOR9Y6vsYKtQ-23" value="GetRawCopy() : BytesVector" style="text;strokeColor=none;fillColor=none;align=left;verticalAlign=top;spacingLeft=4;spacingRight=4;overflow=hidden;rotatable=0;points=[[0,0.5],[1,0.5]];portConstraint=eastwest;whiteSpace=wrap;html=1;" vertex="1" parent="e8PUX0k7FOR9Y6vsYKtQ-17">
          <mxGeometry y="156" width="260" height="26" as="geometry" />
        </mxCell>
        <mxCell id="e8PUX0k7FOR9Y6vsYKtQ-24" value="Serial() : BytesVector" style="text;strokeColor=none;fillColor=none;align=left;verticalAlign=top;spacingLeft=4;spacingRight=4;overflow=hidden;rotatable=0;points=[[0,0.5],[1,0.5]];portConstraint=eastwest;whiteSpace=wrap;html=1;" vertex="1" parent="e8PUX0k7FOR9Y6vsYKtQ-17">
          <mxGeometry y="182" width="260" height="26" as="geometry" />
        </mxCell>
        <mxCell id="e8PUX0k7FOR9Y6vsYKtQ-25" value="PublicKey() : BytesVector" style="text;strokeColor=none;fillColor=none;align=left;verticalAlign=top;spacingLeft=4;spacingRight=4;overflow=hidden;rotatable=0;points=[[0,0.5],[1,0.5]];portConstraint=eastwest;whiteSpace=wrap;html=1;" vertex="1" parent="e8PUX0k7FOR9Y6vsYKtQ-17">
          <mxGeometry y="208" width="260" height="26" as="geometry" />
        </mxCell>
        <mxCell id="e8PUX0k7FOR9Y6vsYKtQ-26" value="DecomposedIssuerName() : DName" style="text;strokeColor=none;fillColor=none;align=left;verticalAlign=top;spacingLeft=4;spacingRight=4;overflow=hidden;rotatable=0;points=[[0,0.5],[1,0.5]];portConstraint=eastwest;whiteSpace=wrap;html=1;" vertex="1" parent="e8PUX0k7FOR9Y6vsYKtQ-17">
          <mxGeometry y="234" width="260" height="26" as="geometry" />
        </mxCell>
        <mxCell id="e8PUX0k7FOR9Y6vsYKtQ-27" value="DecomposedSubjectName() : DName" style="text;strokeColor=none;fillColor=none;align=left;verticalAlign=top;spacingLeft=4;spacingRight=4;overflow=hidden;rotatable=0;points=[[0,0.5],[1,0.5]];portConstraint=eastwest;whiteSpace=wrap;html=1;" vertex="1" parent="e8PUX0k7FOR9Y6vsYKtQ-17">
          <mxGeometry y="260" width="260" height="26" as="geometry" />
        </mxCell>
        <mxCell id="e8PUX0k7FOR9Y6vsYKtQ-28" value="" style="endArrow=diamondThin;endFill=1;endSize=24;html=1;rounded=0;exitX=0.5;exitY=0;exitDx=0;exitDy=0;entryX=0.417;entryY=1.059;entryDx=0;entryDy=0;entryPerimeter=0;" edge="1" parent="e8PUX0k7FOR9Y6vsYKtQ-1" source="e8PUX0k7FOR9Y6vsYKtQ-29" target="e8PUX0k7FOR9Y6vsYKtQ-27">
          <mxGeometry width="160" relative="1" as="geometry">
            <mxPoint x="1109" y="-741" as="sourcePoint" />
            <mxPoint x="1269" y="-741" as="targetPoint" />
          </mxGeometry>
        </mxCell>
        <mxCell id="e8PUX0k7FOR9Y6vsYKtQ-29" value="&lt;b&gt;CertTimeBounds&lt;/b&gt;" style="swimlane;fontStyle=0;childLayout=stackLayout;horizontal=1;startSize=26;fillColor=none;horizontalStack=0;resizeParent=1;resizeParentMax=0;resizeLast=0;collapsible=1;marginBottom=0;whiteSpace=wrap;html=1;" vertex="1" parent="e8PUX0k7FOR9Y6vsYKtQ-1">
          <mxGeometry x="694" y="420" width="140" height="104" as="geometry" />
        </mxCell>
        <mxCell id="e8PUX0k7FOR9Y6vsYKtQ-30" value="+ not_before: time_t" style="text;strokeColor=none;fillColor=none;align=left;verticalAlign=top;spacingLeft=4;spacingRight=4;overflow=hidden;rotatable=0;points=[[0,0.5],[1,0.5]];portConstraint=eastwest;whiteSpace=wrap;html=1;" vertex="1" parent="e8PUX0k7FOR9Y6vsYKtQ-29">
          <mxGeometry y="26" width="140" height="26" as="geometry" />
        </mxCell>
        <mxCell id="e8PUX0k7FOR9Y6vsYKtQ-31" value="+ not_after: time_t" style="text;strokeColor=none;fillColor=none;align=left;verticalAlign=top;spacingLeft=4;spacingRight=4;overflow=hidden;rotatable=0;points=[[0,0.5],[1,0.5]];portConstraint=eastwest;whiteSpace=wrap;html=1;" vertex="1" parent="e8PUX0k7FOR9Y6vsYKtQ-29">
          <mxGeometry y="52" width="140" height="26" as="geometry" />
        </mxCell>
        <mxCell id="e8PUX0k7FOR9Y6vsYKtQ-32" value="+ revocation: time_t" style="text;strokeColor=none;fillColor=none;align=left;verticalAlign=top;spacingLeft=4;spacingRight=4;overflow=hidden;rotatable=0;points=[[0,0.5],[1,0.5]];portConstraint=eastwest;whiteSpace=wrap;html=1;" vertex="1" parent="e8PUX0k7FOR9Y6vsYKtQ-29">
          <mxGeometry y="78" width="140" height="26" as="geometry" />
        </mxCell>
        <mxCell id="e8PUX0k7FOR9Y6vsYKtQ-33" value="DName" style="swimlane;fontStyle=0;childLayout=stackLayout;horizontal=1;startSize=26;fillColor=none;horizontalStack=0;resizeParent=1;resizeParentMax=0;resizeLast=0;collapsible=1;marginBottom=0;whiteSpace=wrap;html=1;" vertex="1" parent="e8PUX0k7FOR9Y6vsYKtQ-1">
          <mxGeometry x="198" y="78" width="232" height="572" as="geometry" />
        </mxCell>
        <mxCell id="e8PUX0k7FOR9Y6vsYKtQ-34" value="+ name: string" style="text;strokeColor=none;fillColor=none;align=left;verticalAlign=middle;spacingLeft=4;spacingRight=4;overflow=hidden;rotatable=0;points=[[0,0.5],[1,0.5]];portConstraint=eastwest;whiteSpace=wrap;html=1;fontSize=10;" vertex="1" parent="e8PUX0k7FOR9Y6vsYKtQ-33">
          <mxGeometry y="26" width="232" height="26" as="geometry" />
        </mxCell>
        <mxCell id="e8PUX0k7FOR9Y6vsYKtQ-35" value="+ surname: string" style="text;strokeColor=none;fillColor=none;align=left;verticalAlign=middle;spacingLeft=4;spacingRight=4;overflow=hidden;rotatable=0;points=[[0,0.5],[1,0.5]];portConstraint=eastwest;whiteSpace=wrap;html=1;fontSize=10;" vertex="1" parent="e8PUX0k7FOR9Y6vsYKtQ-33">
          <mxGeometry y="52" width="232" height="26" as="geometry" />
        </mxCell>
        <mxCell id="e8PUX0k7FOR9Y6vsYKtQ-36" value="+ givenName: string" style="text;strokeColor=none;fillColor=none;align=left;verticalAlign=middle;spacingLeft=4;spacingRight=4;overflow=hidden;rotatable=0;points=[[0,0.5],[1,0.5]];portConstraint=eastwest;whiteSpace=wrap;html=1;fontSize=10;" vertex="1" parent="e8PUX0k7FOR9Y6vsYKtQ-33">
          <mxGeometry y="78" width="232" height="26" as="geometry" />
        </mxCell>
        <mxCell id="e8PUX0k7FOR9Y6vsYKtQ-37" value="+ initials: string" style="text;strokeColor=none;fillColor=none;align=left;verticalAlign=middle;spacingLeft=4;spacingRight=4;overflow=hidden;rotatable=0;points=[[0,0.5],[1,0.5]];portConstraint=eastwest;whiteSpace=wrap;html=1;fontSize=10;" vertex="1" parent="e8PUX0k7FOR9Y6vsYKtQ-33">
          <mxGeometry y="104" width="232" height="26" as="geometry" />
        </mxCell>
        <mxCell id="e8PUX0k7FOR9Y6vsYKtQ-38" value="+ generationQualifier: string" style="text;strokeColor=none;fillColor=none;align=left;verticalAlign=middle;spacingLeft=4;spacingRight=4;overflow=hidden;rotatable=0;points=[[0,0.5],[1,0.5]];portConstraint=eastwest;whiteSpace=wrap;html=1;fontSize=10;" vertex="1" parent="e8PUX0k7FOR9Y6vsYKtQ-33">
          <mxGeometry y="130" width="232" height="26" as="geometry" />
        </mxCell>
        <mxCell id="e8PUX0k7FOR9Y6vsYKtQ-39" value="+ organizationalUnitName: string" style="text;strokeColor=none;fillColor=none;align=left;verticalAlign=middle;spacingLeft=4;spacingRight=4;overflow=hidden;rotatable=0;points=[[0,0.5],[1,0.5]];portConstraint=eastwest;whiteSpace=wrap;html=1;fontSize=10;" vertex="1" parent="e8PUX0k7FOR9Y6vsYKtQ-33">
          <mxGeometry y="156" width="232" height="26" as="geometry" />
        </mxCell>
        <mxCell id="e8PUX0k7FOR9Y6vsYKtQ-40" value="+ countryName: string" style="text;strokeColor=none;fillColor=none;align=left;verticalAlign=middle;spacingLeft=4;spacingRight=4;overflow=hidden;rotatable=0;points=[[0,0.5],[1,0.5]];portConstraint=eastwest;whiteSpace=wrap;html=1;fontSize=10;" vertex="1" parent="e8PUX0k7FOR9Y6vsYKtQ-33">
          <mxGeometry y="182" width="232" height="26" as="geometry" />
        </mxCell>
        <mxCell id="e8PUX0k7FOR9Y6vsYKtQ-41" value="+ serialNumber: string" style="text;strokeColor=none;fillColor=none;align=left;verticalAlign=middle;spacingLeft=4;spacingRight=4;overflow=hidden;rotatable=0;points=[[0,0.5],[1,0.5]];portConstraint=eastwest;whiteSpace=wrap;html=1;fontSize=10;" vertex="1" parent="e8PUX0k7FOR9Y6vsYKtQ-33">
          <mxGeometry y="208" width="232" height="26" as="geometry" />
        </mxCell>
        <mxCell id="e8PUX0k7FOR9Y6vsYKtQ-42" value="+ commonName: string" style="text;strokeColor=none;fillColor=none;align=left;verticalAlign=top;spacingLeft=4;spacingRight=4;overflow=hidden;rotatable=0;points=[[0,0.5],[1,0.5]];portConstraint=eastwest;whiteSpace=wrap;html=1;" vertex="1" parent="e8PUX0k7FOR9Y6vsYKtQ-33">
          <mxGeometry y="234" width="232" height="26" as="geometry" />
        </mxCell>
        <mxCell id="e8PUX0k7FOR9Y6vsYKtQ-43" value="+ localityName: string" style="text;strokeColor=none;fillColor=none;align=left;verticalAlign=middle;spacingLeft=4;spacingRight=4;overflow=hidden;rotatable=0;points=[[0,0.5],[1,0.5]];portConstraint=eastwest;whiteSpace=wrap;html=1;fontSize=10;" vertex="1" parent="e8PUX0k7FOR9Y6vsYKtQ-33">
          <mxGeometry y="260" width="232" height="26" as="geometry" />
        </mxCell>
        <mxCell id="e8PUX0k7FOR9Y6vsYKtQ-44" value="+ stateOrProvinceName: string" style="text;strokeColor=none;fillColor=none;align=left;verticalAlign=middle;spacingLeft=4;spacingRight=4;overflow=hidden;rotatable=0;points=[[0,0.5],[1,0.5]];portConstraint=eastwest;whiteSpace=wrap;html=1;fontSize=10;" vertex="1" parent="e8PUX0k7FOR9Y6vsYKtQ-33">
          <mxGeometry y="286" width="232" height="26" as="geometry" />
        </mxCell>
        <mxCell id="e8PUX0k7FOR9Y6vsYKtQ-45" value="+ streetAddress: string" style="text;strokeColor=none;fillColor=none;align=left;verticalAlign=middle;spacingLeft=4;spacingRight=4;overflow=hidden;rotatable=0;points=[[0,0.5],[1,0.5]];portConstraint=eastwest;whiteSpace=wrap;html=1;fontSize=10;" vertex="1" parent="e8PUX0k7FOR9Y6vsYKtQ-33">
          <mxGeometry y="312" width="232" height="26" as="geometry" />
        </mxCell>
        <mxCell id="e8PUX0k7FOR9Y6vsYKtQ-46" value="+ organizationName: string" style="text;strokeColor=none;fillColor=none;align=left;verticalAlign=top;spacingLeft=4;spacingRight=4;overflow=hidden;rotatable=0;points=[[0,0.5],[1,0.5]];portConstraint=eastwest;whiteSpace=wrap;html=1;" vertex="1" parent="e8PUX0k7FOR9Y6vsYKtQ-33">
          <mxGeometry y="338" width="232" height="26" as="geometry" />
        </mxCell>
        <mxCell id="e8PUX0k7FOR9Y6vsYKtQ-47" value="+ title: string" style="text;strokeColor=none;fillColor=none;align=left;verticalAlign=middle;spacingLeft=4;spacingRight=4;overflow=hidden;rotatable=0;points=[[0,0.5],[1,0.5]];portConstraint=eastwest;whiteSpace=wrap;html=1;fontSize=10;" vertex="1" parent="e8PUX0k7FOR9Y6vsYKtQ-33">
          <mxGeometry y="364" width="232" height="26" as="geometry" />
        </mxCell>
        <mxCell id="e8PUX0k7FOR9Y6vsYKtQ-48" value="+ dnQualifier: string" style="text;strokeColor=none;fillColor=none;align=left;verticalAlign=middle;spacingLeft=4;spacingRight=4;overflow=hidden;rotatable=0;points=[[0,0.5],[1,0.5]];portConstraint=eastwest;whiteSpace=wrap;html=1;fontSize=10;" vertex="1" parent="e8PUX0k7FOR9Y6vsYKtQ-33">
          <mxGeometry y="390" width="232" height="26" as="geometry" />
        </mxCell>
        <mxCell id="e8PUX0k7FOR9Y6vsYKtQ-49" value="+ pseudonym: string" style="text;strokeColor=none;fillColor=none;align=left;verticalAlign=middle;spacingLeft=4;spacingRight=4;overflow=hidden;rotatable=0;points=[[0,0.5],[1,0.5]];portConstraint=eastwest;whiteSpace=wrap;html=1;fontSize=10;" vertex="1" parent="e8PUX0k7FOR9Y6vsYKtQ-33">
          <mxGeometry y="416" width="232" height="26" as="geometry" />
        </mxCell>
        <mxCell id="e8PUX0k7FOR9Y6vsYKtQ-50" value="+ emailAddress: string" style="text;strokeColor=none;fillColor=none;align=left;verticalAlign=middle;spacingLeft=4;spacingRight=4;overflow=hidden;rotatable=0;points=[[0,0.5],[1,0.5]];portConstraint=eastwest;whiteSpace=wrap;html=1;fontSize=10;" vertex="1" parent="e8PUX0k7FOR9Y6vsYKtQ-33">
          <mxGeometry y="442" width="232" height="26" as="geometry" />
        </mxCell>
        <mxCell id="e8PUX0k7FOR9Y6vsYKtQ-51" value="+ inn: string" style="text;strokeColor=none;fillColor=none;align=left;verticalAlign=middle;spacingLeft=4;spacingRight=4;overflow=hidden;rotatable=0;points=[[0,0.5],[1,0.5]];portConstraint=eastwest;whiteSpace=wrap;html=1;fontSize=10;" vertex="1" parent="e8PUX0k7FOR9Y6vsYKtQ-33">
          <mxGeometry y="468" width="232" height="26" as="geometry" />
        </mxCell>
        <mxCell id="e8PUX0k7FOR9Y6vsYKtQ-52" value="+ ogrn: string" style="text;strokeColor=none;fillColor=none;align=left;verticalAlign=middle;spacingLeft=4;spacingRight=4;overflow=hidden;rotatable=0;points=[[0,0.5],[1,0.5]];portConstraint=eastwest;whiteSpace=wrap;html=1;fontSize=10;" vertex="1" parent="e8PUX0k7FOR9Y6vsYKtQ-33">
          <mxGeometry y="494" width="232" height="26" as="geometry" />
        </mxCell>
        <mxCell id="e8PUX0k7FOR9Y6vsYKtQ-53" value="+ unknownOidVals: pair&amp;lt;string,string&amp;gt;" style="text;strokeColor=none;fillColor=none;align=left;verticalAlign=middle;spacingLeft=4;spacingRight=4;overflow=hidden;rotatable=0;points=[[0,0.5],[1,0.5]];portConstraint=eastwest;whiteSpace=wrap;html=1;fontSize=10;" vertex="1" parent="e8PUX0k7FOR9Y6vsYKtQ-33">
          <mxGeometry y="520" width="232" height="26" as="geometry" />
        </mxCell>
        <mxCell id="e8PUX0k7FOR9Y6vsYKtQ-54" value="+ DistinguishedName() : string" style="text;strokeColor=none;fillColor=none;align=left;verticalAlign=middle;spacingLeft=4;spacingRight=4;overflow=hidden;rotatable=0;points=[[0,0.5],[1,0.5]];portConstraint=eastwest;whiteSpace=wrap;html=1;fontSize=10;" vertex="1" parent="e8PUX0k7FOR9Y6vsYKtQ-33">
          <mxGeometry y="546" width="232" height="26" as="geometry" />
        </mxCell>
        <mxCell id="e8PUX0k7FOR9Y6vsYKtQ-55" value="return" style="html=1;verticalAlign=bottom;endArrow=open;dashed=1;endSize=8;curved=0;rounded=0;exitX=0;exitY=0.5;exitDx=0;exitDy=0;entryX=0.991;entryY=0.808;entryDx=0;entryDy=0;entryPerimeter=0;" edge="1" parent="e8PUX0k7FOR9Y6vsYKtQ-1" source="e8PUX0k7FOR9Y6vsYKtQ-27" target="e8PUX0k7FOR9Y6vsYKtQ-34">
          <mxGeometry relative="1" as="geometry">
            <mxPoint x="876" y="-701" as="sourcePoint" />
            <mxPoint x="649" y="-772" as="targetPoint" />
          </mxGeometry>
        </mxCell>
        <mxCell id="e8PUX0k7FOR9Y6vsYKtQ-56" value="return" style="html=1;verticalAlign=bottom;endArrow=open;dashed=1;endSize=8;curved=0;rounded=0;entryX=1.004;entryY=0.037;entryDx=0;entryDy=0;entryPerimeter=0;exitX=0;exitY=0.5;exitDx=0;exitDy=0;" edge="1" parent="e8PUX0k7FOR9Y6vsYKtQ-1" source="e8PUX0k7FOR9Y6vsYKtQ-26" target="e8PUX0k7FOR9Y6vsYKtQ-33">
          <mxGeometry relative="1" as="geometry">
            <mxPoint x="976" y="-638" as="sourcePoint" />
            <mxPoint x="896" y="-638" as="targetPoint" />
          </mxGeometry>
        </mxCell>
        <mxCell id="e8PUX0k7FOR9Y6vsYKtQ-57" value="Use" style="endArrow=open;endSize=12;dashed=1;html=1;rounded=0;entryX=0.01;entryY=0.038;entryDx=0;entryDy=0;entryPerimeter=0;exitX=1.011;exitY=0.056;exitDx=0;exitDy=0;exitPerimeter=0;" edge="1" parent="e8PUX0k7FOR9Y6vsYKtQ-1" source="e8PUX0k7FOR9Y6vsYKtQ-17" target="e8PUX0k7FOR9Y6vsYKtQ-2">
          <mxGeometry width="160" relative="1" as="geometry">
            <mxPoint x="724" y="207" as="sourcePoint" />
            <mxPoint x="884" y="207" as="targetPoint" />
          </mxGeometry>
        </mxCell>
      </root>
    </mxGraphModel>
  </diagram>
  <diagram id="zLn0AmfZRJy72BbEqt7_" name="Xlong Revocation Data">
    <mxGraphModel dx="3953" dy="2740" grid="0" gridSize="10" guides="1" tooltips="1" connect="1" arrows="1" fold="1" page="1" pageScale="1" pageWidth="827" pageHeight="1169" math="0" shadow="0">
      <root>
        <mxCell id="0" />
        <mxCell id="1" parent="0" />
        <mxCell id="lnP99p8MaGAQko8PSYyG-1" value="" style="group" vertex="1" connectable="0" parent="1">
          <mxGeometry x="914" y="70" width="3117" height="2089" as="geometry" />
        </mxCell>
        <mxCell id="lnP99p8MaGAQko8PSYyG-2" value="AlgorithmIdentifier" style="swimlane;fontStyle=0;childLayout=stackLayout;horizontal=1;startSize=26;fillColor=#dae8fc;horizontalStack=0;resizeParent=1;resizeParentMax=0;resizeLast=0;collapsible=1;marginBottom=0;whiteSpace=wrap;html=1;strokeColor=#6c8ebf;" vertex="1" parent="lnP99p8MaGAQko8PSYyG-1">
          <mxGeometry x="486" y="1346" width="180" height="78" as="geometry" />
        </mxCell>
        <mxCell id="lnP99p8MaGAQko8PSYyG-3" value="+ algorithm: string" style="text;strokeColor=none;fillColor=none;align=left;verticalAlign=top;spacingLeft=4;spacingRight=4;overflow=hidden;rotatable=0;points=[[0,0.5],[1,0.5]];portConstraint=eastwest;whiteSpace=wrap;html=1;" vertex="1" parent="lnP99p8MaGAQko8PSYyG-2">
          <mxGeometry y="26" width="180" height="26" as="geometry" />
        </mxCell>
        <mxCell id="lnP99p8MaGAQko8PSYyG-4" value="+ parameters: BytesVector" style="text;strokeColor=none;fillColor=none;align=left;verticalAlign=top;spacingLeft=4;spacingRight=4;overflow=hidden;rotatable=0;points=[[0,0.5],[1,0.5]];portConstraint=eastwest;whiteSpace=wrap;html=1;" vertex="1" parent="lnP99p8MaGAQko8PSYyG-2">
          <mxGeometry y="52" width="180" height="26" as="geometry" />
        </mxCell>
        <mxCell id="lnP99p8MaGAQko8PSYyG-5" value="RevocationValues" style="swimlane;fontStyle=0;childLayout=stackLayout;horizontal=1;startSize=26;fillColor=none;horizontalStack=0;resizeParent=1;resizeParentMax=0;resizeLast=0;collapsible=1;marginBottom=0;whiteSpace=wrap;html=1;" vertex="1" parent="lnP99p8MaGAQko8PSYyG-1">
          <mxGeometry x="1209" y="46" width="330" height="104" as="geometry" />
        </mxCell>
        <mxCell id="lnP99p8MaGAQko8PSYyG-6" value="+ otherRevVals: OtherRevVals" style="text;strokeColor=none;fillColor=none;align=left;verticalAlign=top;spacingLeft=4;spacingRight=4;overflow=hidden;rotatable=0;points=[[0,0.5],[1,0.5]];portConstraint=eastwest;whiteSpace=wrap;html=1;" vertex="1" parent="lnP99p8MaGAQko8PSYyG-5">
          <mxGeometry y="26" width="330" height="26" as="geometry" />
        </mxCell>
        <mxCell id="lnP99p8MaGAQko8PSYyG-7" value="+ crlVals: vector&amp;lt;CertificateList&amp;gt;" style="text;strokeColor=none;fillColor=none;align=left;verticalAlign=top;spacingLeft=4;spacingRight=4;overflow=hidden;rotatable=0;points=[[0,0.5],[1,0.5]];portConstraint=eastwest;whiteSpace=wrap;html=1;" vertex="1" parent="lnP99p8MaGAQko8PSYyG-5">
          <mxGeometry y="52" width="330" height="26" as="geometry" />
        </mxCell>
        <mxCell id="lnP99p8MaGAQko8PSYyG-8" value="+ ocspVals: vector&amp;lt;BasicOCSPResponse&amp;gt;" style="text;strokeColor=none;fillColor=none;align=left;verticalAlign=top;spacingLeft=4;spacingRight=4;overflow=hidden;rotatable=0;points=[[0,0.5],[1,0.5]];portConstraint=eastwest;whiteSpace=wrap;html=1;" vertex="1" parent="lnP99p8MaGAQko8PSYyG-5">
          <mxGeometry y="78" width="330" height="26" as="geometry" />
        </mxCell>
        <mxCell id="lnP99p8MaGAQko8PSYyG-9" value="CertificateList" style="swimlane;fontStyle=0;childLayout=stackLayout;horizontal=1;startSize=26;fillColor=none;horizontalStack=0;resizeParent=1;resizeParentMax=0;resizeLast=0;collapsible=1;marginBottom=0;whiteSpace=wrap;html=1;" vertex="1" parent="lnP99p8MaGAQko8PSYyG-1">
          <mxGeometry x="859" y="1326" width="260" height="130" as="geometry" />
        </mxCell>
        <mxCell id="lnP99p8MaGAQko8PSYyG-10" value="+ signatureAlgorithm: AlgorithmIdentifier" style="text;strokeColor=none;fillColor=none;align=left;verticalAlign=top;spacingLeft=4;spacingRight=4;overflow=hidden;rotatable=0;points=[[0,0.5],[1,0.5]];portConstraint=eastwest;whiteSpace=wrap;html=1;" vertex="1" parent="lnP99p8MaGAQko8PSYyG-9">
          <mxGeometry y="26" width="260" height="26" as="geometry" />
        </mxCell>
        <mxCell id="lnP99p8MaGAQko8PSYyG-11" value="+ tbsCertList : TBSCertList" style="text;strokeColor=none;fillColor=none;align=left;verticalAlign=top;spacingLeft=4;spacingRight=4;overflow=hidden;rotatable=0;points=[[0,0.5],[1,0.5]];portConstraint=eastwest;whiteSpace=wrap;html=1;" vertex="1" parent="lnP99p8MaGAQko8PSYyG-9">
          <mxGeometry y="52" width="260" height="26" as="geometry" />
        </mxCell>
        <mxCell id="lnP99p8MaGAQko8PSYyG-12" value="+ signatureValue: BytesVector" style="text;strokeColor=none;fillColor=none;align=left;verticalAlign=top;spacingLeft=4;spacingRight=4;overflow=hidden;rotatable=0;points=[[0,0.5],[1,0.5]];portConstraint=eastwest;whiteSpace=wrap;html=1;" vertex="1" parent="lnP99p8MaGAQko8PSYyG-9">
          <mxGeometry y="78" width="260" height="26" as="geometry" />
        </mxCell>
        <mxCell id="lnP99p8MaGAQko8PSYyG-13" value="+ der_encoded: BytesVector" style="text;strokeColor=none;fillColor=none;align=left;verticalAlign=top;spacingLeft=4;spacingRight=4;overflow=hidden;rotatable=0;points=[[0,0.5],[1,0.5]];portConstraint=eastwest;whiteSpace=wrap;html=1;" vertex="1" parent="lnP99p8MaGAQko8PSYyG-9">
          <mxGeometry y="104" width="260" height="26" as="geometry" />
        </mxCell>
        <mxCell id="lnP99p8MaGAQko8PSYyG-14" value="0...n" style="endArrow=open;html=1;endSize=12;startArrow=diamondThin;startSize=14;startFill=0;edgeStyle=orthogonalEdgeStyle;align=left;verticalAlign=bottom;rounded=0;exitX=0;exitY=0.5;exitDx=0;exitDy=0;entryX=0.385;entryY=0;entryDx=0;entryDy=0;entryPerimeter=0;" edge="1" parent="lnP99p8MaGAQko8PSYyG-1" source="lnP99p8MaGAQko8PSYyG-7" target="lnP99p8MaGAQko8PSYyG-9">
          <mxGeometry x="-0.4149" y="-9" relative="1" as="geometry">
            <mxPoint x="999" y="314" as="sourcePoint" />
            <mxPoint x="1159" y="314" as="targetPoint" />
            <mxPoint as="offset" />
          </mxGeometry>
        </mxCell>
        <mxCell id="lnP99p8MaGAQko8PSYyG-15" value="TBSCertList" style="swimlane;fontStyle=0;childLayout=stackLayout;horizontal=1;startSize=26;fillColor=none;horizontalStack=0;resizeParent=1;resizeParentMax=0;resizeLast=0;collapsible=1;marginBottom=0;whiteSpace=wrap;html=1;" vertex="1" parent="lnP99p8MaGAQko8PSYyG-1">
          <mxGeometry x="718" y="1539" width="260" height="234" as="geometry" />
        </mxCell>
        <mxCell id="lnP99p8MaGAQko8PSYyG-16" value="+ signature: AlgorithmIdentifier" style="text;strokeColor=none;fillColor=none;align=left;verticalAlign=top;spacingLeft=4;spacingRight=4;overflow=hidden;rotatable=0;points=[[0,0.5],[1,0.5]];portConstraint=eastwest;whiteSpace=wrap;html=1;" vertex="1" parent="lnP99p8MaGAQko8PSYyG-15">
          <mxGeometry y="26" width="260" height="26" as="geometry" />
        </mxCell>
        <mxCell id="lnP99p8MaGAQko8PSYyG-17" value="+ version: Version (uint_64t)" style="text;strokeColor=none;fillColor=none;align=left;verticalAlign=top;spacingLeft=4;spacingRight=4;overflow=hidden;rotatable=0;points=[[0,0.5],[1,0.5]];portConstraint=eastwest;whiteSpace=wrap;html=1;" vertex="1" parent="lnP99p8MaGAQko8PSYyG-15">
          <mxGeometry y="52" width="260" height="26" as="geometry" />
        </mxCell>
        <mxCell id="lnP99p8MaGAQko8PSYyG-18" value="+ issuer: string" style="text;strokeColor=none;fillColor=none;align=left;verticalAlign=top;spacingLeft=4;spacingRight=4;overflow=hidden;rotatable=0;points=[[0,0.5],[1,0.5]];portConstraint=eastwest;whiteSpace=wrap;html=1;" vertex="1" parent="lnP99p8MaGAQko8PSYyG-15">
          <mxGeometry y="78" width="260" height="26" as="geometry" />
        </mxCell>
        <mxCell id="lnP99p8MaGAQko8PSYyG-19" value="+ thisUpdate: string" style="text;strokeColor=none;fillColor=none;align=left;verticalAlign=top;spacingLeft=4;spacingRight=4;overflow=hidden;rotatable=0;points=[[0,0.5],[1,0.5]];portConstraint=eastwest;whiteSpace=wrap;html=1;" vertex="1" parent="lnP99p8MaGAQko8PSYyG-15">
          <mxGeometry y="104" width="260" height="26" as="geometry" />
        </mxCell>
        <mxCell id="lnP99p8MaGAQko8PSYyG-20" value="+ nextUpdate: string" style="text;strokeColor=none;fillColor=none;align=left;verticalAlign=top;spacingLeft=4;spacingRight=4;overflow=hidden;rotatable=0;points=[[0,0.5],[1,0.5]];portConstraint=eastwest;whiteSpace=wrap;html=1;" vertex="1" parent="lnP99p8MaGAQko8PSYyG-15">
          <mxGeometry y="130" width="260" height="26" as="geometry" />
        </mxCell>
        <mxCell id="lnP99p8MaGAQko8PSYyG-21" value="+ revokedCertificates: vector&amp;lt;RevocedCert&amp;gt;" style="text;strokeColor=none;fillColor=none;align=left;verticalAlign=top;spacingLeft=4;spacingRight=4;overflow=hidden;rotatable=0;points=[[0,0.5],[1,0.5]];portConstraint=eastwest;whiteSpace=wrap;html=1;" vertex="1" parent="lnP99p8MaGAQko8PSYyG-15">
          <mxGeometry y="156" width="260" height="26" as="geometry" />
        </mxCell>
        <mxCell id="lnP99p8MaGAQko8PSYyG-22" value="+ crlExtensions: vector&amp;lt;Extension&amp;gt;" style="text;strokeColor=none;fillColor=none;align=left;verticalAlign=top;spacingLeft=4;spacingRight=4;overflow=hidden;rotatable=0;points=[[0,0.5],[1,0.5]];portConstraint=eastwest;whiteSpace=wrap;html=1;" vertex="1" parent="lnP99p8MaGAQko8PSYyG-15">
          <mxGeometry y="182" width="260" height="26" as="geometry" />
        </mxCell>
        <mxCell id="lnP99p8MaGAQko8PSYyG-23" value="+ der_encoded: BytesVector" style="text;strokeColor=none;fillColor=none;align=left;verticalAlign=top;spacingLeft=4;spacingRight=4;overflow=hidden;rotatable=0;points=[[0,0.5],[1,0.5]];portConstraint=eastwest;whiteSpace=wrap;html=1;" vertex="1" parent="lnP99p8MaGAQko8PSYyG-15">
          <mxGeometry y="208" width="260" height="26" as="geometry" />
        </mxCell>
        <mxCell id="lnP99p8MaGAQko8PSYyG-24" value="1" style="endArrow=open;html=1;endSize=12;startArrow=diamondThin;startSize=14;startFill=0;edgeStyle=orthogonalEdgeStyle;align=left;verticalAlign=bottom;rounded=0;" edge="1" parent="lnP99p8MaGAQko8PSYyG-1" source="lnP99p8MaGAQko8PSYyG-11" target="lnP99p8MaGAQko8PSYyG-15">
          <mxGeometry x="-1" y="3" relative="1" as="geometry">
            <mxPoint x="659" y="1367" as="sourcePoint" />
            <mxPoint x="819" y="1367" as="targetPoint" />
          </mxGeometry>
        </mxCell>
        <mxCell id="lnP99p8MaGAQko8PSYyG-25" value="1" style="endArrow=open;html=1;endSize=12;startArrow=diamondThin;startSize=14;startFill=0;edgeStyle=orthogonalEdgeStyle;align=left;verticalAlign=bottom;rounded=0;entryX=1;entryY=0.5;entryDx=0;entryDy=0;" edge="1" parent="lnP99p8MaGAQko8PSYyG-1" source="lnP99p8MaGAQko8PSYyG-16" target="lnP99p8MaGAQko8PSYyG-3">
          <mxGeometry x="-1" y="3" relative="1" as="geometry">
            <mxPoint x="529" y="1407" as="sourcePoint" />
            <mxPoint x="689" y="1407" as="targetPoint" />
          </mxGeometry>
        </mxCell>
        <mxCell id="lnP99p8MaGAQko8PSYyG-26" value="RevocedCert" style="swimlane;fontStyle=0;childLayout=stackLayout;horizontal=1;startSize=26;fillColor=none;horizontalStack=0;resizeParent=1;resizeParentMax=0;resizeLast=0;collapsible=1;marginBottom=0;whiteSpace=wrap;html=1;" vertex="1" parent="lnP99p8MaGAQko8PSYyG-1">
          <mxGeometry x="110" y="1718" width="350" height="104" as="geometry" />
        </mxCell>
        <mxCell id="lnP99p8MaGAQko8PSYyG-27" value="+ userCertificate: CertificateSerialNumber (BytesVector)" style="text;strokeColor=none;fillColor=none;align=left;verticalAlign=top;spacingLeft=4;spacingRight=4;overflow=hidden;rotatable=0;points=[[0,0.5],[1,0.5]];portConstraint=eastwest;whiteSpace=wrap;html=1;" vertex="1" parent="lnP99p8MaGAQko8PSYyG-26">
          <mxGeometry y="26" width="350" height="26" as="geometry" />
        </mxCell>
        <mxCell id="lnP99p8MaGAQko8PSYyG-28" value="+ revocationDate: string" style="text;strokeColor=none;fillColor=none;align=left;verticalAlign=top;spacingLeft=4;spacingRight=4;overflow=hidden;rotatable=0;points=[[0,0.5],[1,0.5]];portConstraint=eastwest;whiteSpace=wrap;html=1;" vertex="1" parent="lnP99p8MaGAQko8PSYyG-26">
          <mxGeometry y="52" width="350" height="26" as="geometry" />
        </mxCell>
        <mxCell id="lnP99p8MaGAQko8PSYyG-29" value="+ crlEntryExtensions: vector&amp;lt;Extension&amp;gt;" style="text;strokeColor=none;fillColor=none;align=left;verticalAlign=top;spacingLeft=4;spacingRight=4;overflow=hidden;rotatable=0;points=[[0,0.5],[1,0.5]];portConstraint=eastwest;whiteSpace=wrap;html=1;" vertex="1" parent="lnP99p8MaGAQko8PSYyG-26">
          <mxGeometry y="78" width="350" height="26" as="geometry" />
        </mxCell>
        <mxCell id="lnP99p8MaGAQko8PSYyG-30" value="1" style="endArrow=open;html=1;endSize=12;startArrow=diamondThin;startSize=14;startFill=0;edgeStyle=orthogonalEdgeStyle;align=left;verticalAlign=bottom;rounded=0;entryX=1;entryY=0.25;entryDx=0;entryDy=0;exitX=0;exitY=0.5;exitDx=0;exitDy=0;" edge="1" parent="lnP99p8MaGAQko8PSYyG-1" source="lnP99p8MaGAQko8PSYyG-10" target="lnP99p8MaGAQko8PSYyG-2">
          <mxGeometry x="-1" y="3" relative="1" as="geometry">
            <mxPoint x="429" y="1367" as="sourcePoint" />
            <mxPoint x="589" y="1367" as="targetPoint" />
          </mxGeometry>
        </mxCell>
        <mxCell id="lnP99p8MaGAQko8PSYyG-31" value="0..n" style="endArrow=open;html=1;endSize=12;startArrow=diamondThin;startSize=14;startFill=0;edgeStyle=orthogonalEdgeStyle;align=left;verticalAlign=bottom;rounded=0;exitX=0;exitY=0.5;exitDx=0;exitDy=0;entryX=0.75;entryY=0;entryDx=0;entryDy=0;" edge="1" parent="lnP99p8MaGAQko8PSYyG-1" source="lnP99p8MaGAQko8PSYyG-21" target="lnP99p8MaGAQko8PSYyG-26">
          <mxGeometry x="0.4574" y="-11" relative="1" as="geometry">
            <mxPoint x="479" y="1606" as="sourcePoint" />
            <mxPoint x="649" y="1477" as="targetPoint" />
            <Array as="points">
              <mxPoint x="585" y="1709" />
              <mxPoint x="585" y="1684" />
              <mxPoint x="373" y="1684" />
            </Array>
            <mxPoint as="offset" />
          </mxGeometry>
        </mxCell>
        <mxCell id="lnP99p8MaGAQko8PSYyG-32" value="Extension" style="swimlane;fontStyle=0;childLayout=stackLayout;horizontal=1;startSize=26;fillColor=none;horizontalStack=0;resizeParent=1;resizeParentMax=0;resizeLast=0;collapsible=1;marginBottom=0;whiteSpace=wrap;html=1;" vertex="1" parent="lnP99p8MaGAQko8PSYyG-1">
          <mxGeometry x="425" y="1915" width="140" height="78" as="geometry" />
        </mxCell>
        <mxCell id="lnP99p8MaGAQko8PSYyG-33" value="+ extnID: string" style="text;strokeColor=none;fillColor=none;align=left;verticalAlign=top;spacingLeft=4;spacingRight=4;overflow=hidden;rotatable=0;points=[[0,0.5],[1,0.5]];portConstraint=eastwest;whiteSpace=wrap;html=1;" vertex="1" parent="lnP99p8MaGAQko8PSYyG-32">
          <mxGeometry y="26" width="140" height="26" as="geometry" />
        </mxCell>
        <mxCell id="lnP99p8MaGAQko8PSYyG-34" value="+ critical: bool" style="text;strokeColor=none;fillColor=none;align=left;verticalAlign=top;spacingLeft=4;spacingRight=4;overflow=hidden;rotatable=0;points=[[0,0.5],[1,0.5]];portConstraint=eastwest;whiteSpace=wrap;html=1;" vertex="1" parent="lnP99p8MaGAQko8PSYyG-32">
          <mxGeometry y="52" width="140" height="26" as="geometry" />
        </mxCell>
        <mxCell id="lnP99p8MaGAQko8PSYyG-35" value="0..n" style="endArrow=open;html=1;endSize=12;startArrow=diamondThin;startSize=14;startFill=0;edgeStyle=orthogonalEdgeStyle;align=left;verticalAlign=bottom;rounded=0;entryX=0.75;entryY=0;entryDx=0;entryDy=0;exitX=0;exitY=0.5;exitDx=0;exitDy=0;" edge="1" parent="lnP99p8MaGAQko8PSYyG-1" source="lnP99p8MaGAQko8PSYyG-22" target="lnP99p8MaGAQko8PSYyG-32">
          <mxGeometry x="-0.2258" y="15" relative="1" as="geometry">
            <mxPoint x="309" y="1607" as="sourcePoint" />
            <mxPoint x="469" y="1607" as="targetPoint" />
            <Array as="points">
              <mxPoint x="530" y="1735" />
            </Array>
            <mxPoint as="offset" />
          </mxGeometry>
        </mxCell>
        <mxCell id="lnP99p8MaGAQko8PSYyG-36" value="0...n" style="endArrow=open;html=1;endSize=12;startArrow=diamondThin;startSize=14;startFill=0;edgeStyle=orthogonalEdgeStyle;align=left;verticalAlign=bottom;rounded=0;entryX=0.571;entryY=0;entryDx=0;entryDy=0;entryPerimeter=0;exitX=1;exitY=0.5;exitDx=0;exitDy=0;" edge="1" parent="lnP99p8MaGAQko8PSYyG-1" source="lnP99p8MaGAQko8PSYyG-29" target="lnP99p8MaGAQko8PSYyG-32">
          <mxGeometry x="-1" y="3" relative="1" as="geometry">
            <mxPoint x="309" y="1657" as="sourcePoint" />
            <mxPoint x="469" y="1657" as="targetPoint" />
          </mxGeometry>
        </mxCell>
        <mxCell id="lnP99p8MaGAQko8PSYyG-37" value="BasicOCSPResponse" style="swimlane;fontStyle=0;childLayout=stackLayout;horizontal=1;startSize=26;fillColor=none;horizontalStack=0;resizeParent=1;resizeParentMax=0;resizeLast=0;collapsible=1;marginBottom=0;whiteSpace=wrap;html=1;" vertex="1" parent="lnP99p8MaGAQko8PSYyG-1">
          <mxGeometry x="1509" y="378" width="260" height="182" as="geometry" />
        </mxCell>
        <mxCell id="lnP99p8MaGAQko8PSYyG-38" value="+ tbsResponseData: ResponseData" style="text;strokeColor=none;fillColor=none;align=left;verticalAlign=top;spacingLeft=4;spacingRight=4;overflow=hidden;rotatable=0;points=[[0,0.5],[1,0.5]];portConstraint=eastwest;whiteSpace=wrap;html=1;" vertex="1" parent="lnP99p8MaGAQko8PSYyG-37">
          <mxGeometry y="26" width="260" height="26" as="geometry" />
        </mxCell>
        <mxCell id="lnP99p8MaGAQko8PSYyG-39" value="+ resp_data_der_encoded: BytesVector" style="text;strokeColor=none;fillColor=none;align=left;verticalAlign=top;spacingLeft=4;spacingRight=4;overflow=hidden;rotatable=0;points=[[0,0.5],[1,0.5]];portConstraint=eastwest;whiteSpace=wrap;html=1;" vertex="1" parent="lnP99p8MaGAQko8PSYyG-37">
          <mxGeometry y="52" width="260" height="26" as="geometry" />
        </mxCell>
        <mxCell id="lnP99p8MaGAQko8PSYyG-40" value="+ signatureAlgorithm: string (OID)" style="text;strokeColor=none;fillColor=none;align=left;verticalAlign=top;spacingLeft=4;spacingRight=4;overflow=hidden;rotatable=0;points=[[0,0.5],[1,0.5]];portConstraint=eastwest;whiteSpace=wrap;html=1;" vertex="1" parent="lnP99p8MaGAQko8PSYyG-37">
          <mxGeometry y="78" width="260" height="26" as="geometry" />
        </mxCell>
        <mxCell id="lnP99p8MaGAQko8PSYyG-41" value="+ signature: BytesVector" style="text;strokeColor=none;fillColor=none;align=left;verticalAlign=top;spacingLeft=4;spacingRight=4;overflow=hidden;rotatable=0;points=[[0,0.5],[1,0.5]];portConstraint=eastwest;whiteSpace=wrap;html=1;" vertex="1" parent="lnP99p8MaGAQko8PSYyG-37">
          <mxGeometry y="104" width="260" height="26" as="geometry" />
        </mxCell>
        <mxCell id="lnP99p8MaGAQko8PSYyG-42" value="+ certs: BytesVector" style="text;strokeColor=none;fillColor=none;align=left;verticalAlign=top;spacingLeft=4;spacingRight=4;overflow=hidden;rotatable=0;points=[[0,0.5],[1,0.5]];portConstraint=eastwest;whiteSpace=wrap;html=1;" vertex="1" parent="lnP99p8MaGAQko8PSYyG-37">
          <mxGeometry y="130" width="260" height="26" as="geometry" />
        </mxCell>
        <mxCell id="lnP99p8MaGAQko8PSYyG-43" value="+ der_encoded: BytesVector" style="text;strokeColor=none;fillColor=none;align=left;verticalAlign=top;spacingLeft=4;spacingRight=4;overflow=hidden;rotatable=0;points=[[0,0.5],[1,0.5]];portConstraint=eastwest;whiteSpace=wrap;html=1;" vertex="1" parent="lnP99p8MaGAQko8PSYyG-37">
          <mxGeometry y="156" width="260" height="26" as="geometry" />
        </mxCell>
        <mxCell id="lnP99p8MaGAQko8PSYyG-44" value="ResponseData" style="swimlane;fontStyle=0;childLayout=stackLayout;horizontal=1;startSize=26;fillColor=none;horizontalStack=0;resizeParent=1;resizeParentMax=0;resizeLast=0;collapsible=1;marginBottom=0;whiteSpace=wrap;html=1;" vertex="1" parent="lnP99p8MaGAQko8PSYyG-1">
          <mxGeometry x="1308" y="575" width="270" height="182" as="geometry" />
        </mxCell>
        <mxCell id="lnP99p8MaGAQko8PSYyG-45" value="+ version: uint8_t" style="text;strokeColor=none;fillColor=none;align=left;verticalAlign=top;spacingLeft=4;spacingRight=4;overflow=hidden;rotatable=0;points=[[0,0.5],[1,0.5]];portConstraint=eastwest;whiteSpace=wrap;html=1;" vertex="1" parent="lnP99p8MaGAQko8PSYyG-44">
          <mxGeometry y="26" width="270" height="26" as="geometry" />
        </mxCell>
        <mxCell id="lnP99p8MaGAQko8PSYyG-46" value="+ responderID_hash: BytesVector" style="text;strokeColor=none;fillColor=none;align=left;verticalAlign=top;spacingLeft=4;spacingRight=4;overflow=hidden;rotatable=0;points=[[0,0.5],[1,0.5]];portConstraint=eastwest;whiteSpace=wrap;html=1;" vertex="1" parent="lnP99p8MaGAQko8PSYyG-44">
          <mxGeometry y="52" width="270" height="26" as="geometry" />
        </mxCell>
        <mxCell id="lnP99p8MaGAQko8PSYyG-47" value="+ responderID_name: string" style="text;strokeColor=none;fillColor=none;align=left;verticalAlign=top;spacingLeft=4;spacingRight=4;overflow=hidden;rotatable=0;points=[[0,0.5],[1,0.5]];portConstraint=eastwest;whiteSpace=wrap;html=1;" vertex="1" parent="lnP99p8MaGAQko8PSYyG-44">
          <mxGeometry y="78" width="270" height="26" as="geometry" />
        </mxCell>
        <mxCell id="lnP99p8MaGAQko8PSYyG-48" value="+ producedAt: string" style="text;strokeColor=none;fillColor=none;align=left;verticalAlign=top;spacingLeft=4;spacingRight=4;overflow=hidden;rotatable=0;points=[[0,0.5],[1,0.5]];portConstraint=eastwest;whiteSpace=wrap;html=1;" vertex="1" parent="lnP99p8MaGAQko8PSYyG-44">
          <mxGeometry y="104" width="270" height="26" as="geometry" />
        </mxCell>
        <mxCell id="lnP99p8MaGAQko8PSYyG-49" value="+ responses: vector&amp;lt;SingleResponse&amp;gt;" style="text;strokeColor=none;fillColor=none;align=left;verticalAlign=top;spacingLeft=4;spacingRight=4;overflow=hidden;rotatable=0;points=[[0,0.5],[1,0.5]];portConstraint=eastwest;whiteSpace=wrap;html=1;" vertex="1" parent="lnP99p8MaGAQko8PSYyG-44">
          <mxGeometry y="130" width="270" height="26" as="geometry" />
        </mxCell>
        <mxCell id="lnP99p8MaGAQko8PSYyG-50" value="+ responseExtensions: BytesVector" style="text;strokeColor=none;fillColor=none;align=left;verticalAlign=top;spacingLeft=4;spacingRight=4;overflow=hidden;rotatable=0;points=[[0,0.5],[1,0.5]];portConstraint=eastwest;whiteSpace=wrap;html=1;" vertex="1" parent="lnP99p8MaGAQko8PSYyG-44">
          <mxGeometry y="156" width="270" height="26" as="geometry" />
        </mxCell>
        <mxCell id="lnP99p8MaGAQko8PSYyG-51" value="1" style="endArrow=open;html=1;endSize=12;startArrow=diamondThin;startSize=14;startFill=0;edgeStyle=orthogonalEdgeStyle;align=left;verticalAlign=bottom;rounded=0;exitX=0;exitY=0.5;exitDx=0;exitDy=0;entryX=0.483;entryY=0.011;entryDx=0;entryDy=0;entryPerimeter=0;" edge="1" parent="lnP99p8MaGAQko8PSYyG-1" source="lnP99p8MaGAQko8PSYyG-38" target="lnP99p8MaGAQko8PSYyG-44">
          <mxGeometry x="-1" y="3" relative="1" as="geometry">
            <mxPoint x="1099" y="702" as="sourcePoint" />
            <mxPoint x="1259" y="702" as="targetPoint" />
          </mxGeometry>
        </mxCell>
        <mxCell id="lnP99p8MaGAQko8PSYyG-52" value="SingleResponse" style="swimlane;fontStyle=0;childLayout=stackLayout;horizontal=1;startSize=26;fillColor=none;horizontalStack=0;resizeParent=1;resizeParentMax=0;resizeLast=0;collapsible=1;marginBottom=0;whiteSpace=wrap;html=1;" vertex="1" parent="lnP99p8MaGAQko8PSYyG-1">
          <mxGeometry x="1190" y="802" width="230" height="156" as="geometry" />
        </mxCell>
        <mxCell id="lnP99p8MaGAQko8PSYyG-53" value="+ certID: CertID" style="text;strokeColor=none;fillColor=none;align=left;verticalAlign=top;spacingLeft=4;spacingRight=4;overflow=hidden;rotatable=0;points=[[0,0.5],[1,0.5]];portConstraint=eastwest;whiteSpace=wrap;html=1;" vertex="1" parent="lnP99p8MaGAQko8PSYyG-52">
          <mxGeometry y="26" width="230" height="26" as="geometry" />
        </mxCell>
        <mxCell id="lnP99p8MaGAQko8PSYyG-54" value="+ certStatus: CertStatus (enum)" style="text;strokeColor=none;fillColor=none;align=left;verticalAlign=top;spacingLeft=4;spacingRight=4;overflow=hidden;rotatable=0;points=[[0,0.5],[1,0.5]];portConstraint=eastwest;whiteSpace=wrap;html=1;" vertex="1" parent="lnP99p8MaGAQko8PSYyG-52">
          <mxGeometry y="52" width="230" height="26" as="geometry" />
        </mxCell>
        <mxCell id="lnP99p8MaGAQko8PSYyG-55" value="+ thisUpdate: string" style="text;strokeColor=none;fillColor=none;align=left;verticalAlign=top;spacingLeft=4;spacingRight=4;overflow=hidden;rotatable=0;points=[[0,0.5],[1,0.5]];portConstraint=eastwest;whiteSpace=wrap;html=1;" vertex="1" parent="lnP99p8MaGAQko8PSYyG-52">
          <mxGeometry y="78" width="230" height="26" as="geometry" />
        </mxCell>
        <mxCell id="lnP99p8MaGAQko8PSYyG-56" value="+ nextUpdate: string" style="text;strokeColor=none;fillColor=none;align=left;verticalAlign=top;spacingLeft=4;spacingRight=4;overflow=hidden;rotatable=0;points=[[0,0.5],[1,0.5]];portConstraint=eastwest;whiteSpace=wrap;html=1;" vertex="1" parent="lnP99p8MaGAQko8PSYyG-52">
          <mxGeometry y="104" width="230" height="26" as="geometry" />
        </mxCell>
        <mxCell id="lnP99p8MaGAQko8PSYyG-57" value="+ singleExtensions: BytesVector" style="text;strokeColor=none;fillColor=none;align=left;verticalAlign=top;spacingLeft=4;spacingRight=4;overflow=hidden;rotatable=0;points=[[0,0.5],[1,0.5]];portConstraint=eastwest;whiteSpace=wrap;html=1;" vertex="1" parent="lnP99p8MaGAQko8PSYyG-52">
          <mxGeometry y="130" width="230" height="26" as="geometry" />
        </mxCell>
        <mxCell id="lnP99p8MaGAQko8PSYyG-58" value="0...n" style="endArrow=open;html=1;endSize=12;startArrow=diamondThin;startSize=14;startFill=0;edgeStyle=orthogonalEdgeStyle;align=left;verticalAlign=bottom;rounded=0;exitX=0;exitY=0.5;exitDx=0;exitDy=0;entryX=0.25;entryY=0;entryDx=0;entryDy=0;" edge="1" parent="lnP99p8MaGAQko8PSYyG-1" source="lnP99p8MaGAQko8PSYyG-49" target="lnP99p8MaGAQko8PSYyG-52">
          <mxGeometry x="-0.1223" y="-3" relative="1" as="geometry">
            <mxPoint x="1139" y="1112" as="sourcePoint" />
            <mxPoint x="1299" y="1112" as="targetPoint" />
            <mxPoint as="offset" />
          </mxGeometry>
        </mxCell>
        <mxCell id="lnP99p8MaGAQko8PSYyG-59" value="CertID" style="swimlane;fontStyle=0;childLayout=stackLayout;horizontal=1;startSize=26;fillColor=none;horizontalStack=0;resizeParent=1;resizeParentMax=0;resizeLast=0;collapsible=1;marginBottom=0;whiteSpace=wrap;html=1;" vertex="1" parent="lnP99p8MaGAQko8PSYyG-1">
          <mxGeometry x="1089" y="974" width="230" height="130" as="geometry" />
        </mxCell>
        <mxCell id="lnP99p8MaGAQko8PSYyG-60" value="+ hashAlgorithm: string" style="text;strokeColor=none;fillColor=none;align=left;verticalAlign=top;spacingLeft=4;spacingRight=4;overflow=hidden;rotatable=0;points=[[0,0.5],[1,0.5]];portConstraint=eastwest;whiteSpace=wrap;html=1;" vertex="1" parent="lnP99p8MaGAQko8PSYyG-59">
          <mxGeometry y="26" width="230" height="26" as="geometry" />
        </mxCell>
        <mxCell id="lnP99p8MaGAQko8PSYyG-61" value="+ issuerNameHash: BytesVector" style="text;strokeColor=none;fillColor=none;align=left;verticalAlign=top;spacingLeft=4;spacingRight=4;overflow=hidden;rotatable=0;points=[[0,0.5],[1,0.5]];portConstraint=eastwest;whiteSpace=wrap;html=1;" vertex="1" parent="lnP99p8MaGAQko8PSYyG-59">
          <mxGeometry y="52" width="230" height="26" as="geometry" />
        </mxCell>
        <mxCell id="lnP99p8MaGAQko8PSYyG-62" value="+ issuerKeyHash: BytesVector" style="text;strokeColor=none;fillColor=none;align=left;verticalAlign=top;spacingLeft=4;spacingRight=4;overflow=hidden;rotatable=0;points=[[0,0.5],[1,0.5]];portConstraint=eastwest;whiteSpace=wrap;html=1;" vertex="1" parent="lnP99p8MaGAQko8PSYyG-59">
          <mxGeometry y="78" width="230" height="26" as="geometry" />
        </mxCell>
        <mxCell id="lnP99p8MaGAQko8PSYyG-63" value="+ serialNumber: BytesVector" style="text;strokeColor=none;fillColor=none;align=left;verticalAlign=top;spacingLeft=4;spacingRight=4;overflow=hidden;rotatable=0;points=[[0,0.5],[1,0.5]];portConstraint=eastwest;whiteSpace=wrap;html=1;" vertex="1" parent="lnP99p8MaGAQko8PSYyG-59">
          <mxGeometry y="104" width="230" height="26" as="geometry" />
        </mxCell>
        <mxCell id="lnP99p8MaGAQko8PSYyG-64" value="1" style="endArrow=open;html=1;endSize=12;startArrow=diamondThin;startSize=14;startFill=0;edgeStyle=orthogonalEdgeStyle;align=left;verticalAlign=bottom;rounded=0;entryX=0.196;entryY=0;entryDx=0;entryDy=0;entryPerimeter=0;exitX=0;exitY=0.5;exitDx=0;exitDy=0;" edge="1" parent="lnP99p8MaGAQko8PSYyG-1" source="lnP99p8MaGAQko8PSYyG-53" target="lnP99p8MaGAQko8PSYyG-59">
          <mxGeometry x="-1" y="3" relative="1" as="geometry">
            <mxPoint x="1139" y="1112" as="sourcePoint" />
            <mxPoint x="1299" y="1112" as="targetPoint" />
          </mxGeometry>
        </mxCell>
        <mxCell id="lnP99p8MaGAQko8PSYyG-65" value="0...n" style="endArrow=open;html=1;endSize=12;startArrow=diamondThin;startSize=14;startFill=0;edgeStyle=orthogonalEdgeStyle;align=left;verticalAlign=bottom;rounded=0;exitX=1;exitY=0.5;exitDx=0;exitDy=0;entryX=0.798;entryY=-0.016;entryDx=0;entryDy=0;entryPerimeter=0;" edge="1" parent="lnP99p8MaGAQko8PSYyG-1" source="lnP99p8MaGAQko8PSYyG-8" target="lnP99p8MaGAQko8PSYyG-37">
          <mxGeometry x="-0.666" y="5" relative="1" as="geometry">
            <mxPoint x="1429" y="474" as="sourcePoint" />
            <mxPoint x="1589" y="474" as="targetPoint" />
            <mxPoint as="offset" />
          </mxGeometry>
        </mxCell>
        <mxCell id="lnP99p8MaGAQko8PSYyG-66" value="OtherRevVals" style="swimlane;fontStyle=0;childLayout=stackLayout;horizontal=1;startSize=26;fillColor=none;horizontalStack=0;resizeParent=1;resizeParentMax=0;resizeLast=0;collapsible=1;marginBottom=0;whiteSpace=wrap;html=1;" vertex="1" parent="lnP99p8MaGAQko8PSYyG-1">
          <mxGeometry x="1779" y="64" width="240" height="78" as="geometry" />
        </mxCell>
        <mxCell id="lnP99p8MaGAQko8PSYyG-67" value="+ OtherRevValType: string (OID)" style="text;strokeColor=none;fillColor=none;align=left;verticalAlign=top;spacingLeft=4;spacingRight=4;overflow=hidden;rotatable=0;points=[[0,0.5],[1,0.5]];portConstraint=eastwest;whiteSpace=wrap;html=1;" vertex="1" parent="lnP99p8MaGAQko8PSYyG-66">
          <mxGeometry y="26" width="240" height="26" as="geometry" />
        </mxCell>
        <mxCell id="lnP99p8MaGAQko8PSYyG-68" value="+ OtherRevVals: BytesVector" style="text;strokeColor=none;fillColor=none;align=left;verticalAlign=top;spacingLeft=4;spacingRight=4;overflow=hidden;rotatable=0;points=[[0,0.5],[1,0.5]];portConstraint=eastwest;whiteSpace=wrap;html=1;" vertex="1" parent="lnP99p8MaGAQko8PSYyG-66">
          <mxGeometry y="52" width="240" height="26" as="geometry" />
        </mxCell>
        <mxCell id="lnP99p8MaGAQko8PSYyG-69" value="1" style="endArrow=open;html=1;endSize=12;startArrow=diamondThin;startSize=14;startFill=0;edgeStyle=orthogonalEdgeStyle;align=left;verticalAlign=bottom;rounded=0;exitX=1;exitY=0.5;exitDx=0;exitDy=0;entryX=0;entryY=0.25;entryDx=0;entryDy=0;" edge="1" parent="lnP99p8MaGAQko8PSYyG-1" source="lnP99p8MaGAQko8PSYyG-6" target="lnP99p8MaGAQko8PSYyG-66">
          <mxGeometry x="-1" y="3" relative="1" as="geometry">
            <mxPoint x="1676" y="451" as="sourcePoint" />
            <mxPoint x="1506" y="551" as="targetPoint" />
          </mxGeometry>
        </mxCell>
        <mxCell id="lnP99p8MaGAQko8PSYyG-70" value="CrlOcspRef" style="swimlane;fontStyle=0;childLayout=stackLayout;horizontal=1;startSize=26;fillColor=none;horizontalStack=0;resizeParent=1;resizeParentMax=0;resizeLast=0;collapsible=1;marginBottom=0;whiteSpace=wrap;html=1;" vertex="1" parent="lnP99p8MaGAQko8PSYyG-1">
          <mxGeometry x="2382" y="46" width="230" height="104" as="geometry" />
        </mxCell>
        <mxCell id="lnP99p8MaGAQko8PSYyG-71" value="+ otherRev: OtherRevRefs" style="text;strokeColor=none;fillColor=none;align=left;verticalAlign=top;spacingLeft=4;spacingRight=4;overflow=hidden;rotatable=0;points=[[0,0.5],[1,0.5]];portConstraint=eastwest;whiteSpace=wrap;html=1;" vertex="1" parent="lnP99p8MaGAQko8PSYyG-70">
          <mxGeometry y="26" width="230" height="26" as="geometry" />
        </mxCell>
        <mxCell id="lnP99p8MaGAQko8PSYyG-72" value="+ ocspids: vector&amp;lt;OcspResponsesID&amp;gt;" style="text;strokeColor=none;fillColor=none;align=left;verticalAlign=top;spacingLeft=4;spacingRight=4;overflow=hidden;rotatable=0;points=[[0,0.5],[1,0.5]];portConstraint=eastwest;whiteSpace=wrap;html=1;" vertex="1" parent="lnP99p8MaGAQko8PSYyG-70">
          <mxGeometry y="52" width="230" height="26" as="geometry" />
        </mxCell>
        <mxCell id="lnP99p8MaGAQko8PSYyG-73" value="+ crlids: vector&amp;lt;CrlValidatedID&amp;gt;" style="text;strokeColor=none;fillColor=none;align=left;verticalAlign=top;spacingLeft=4;spacingRight=4;overflow=hidden;rotatable=0;points=[[0,0.5],[1,0.5]];portConstraint=eastwest;whiteSpace=wrap;html=1;" vertex="1" parent="lnP99p8MaGAQko8PSYyG-70">
          <mxGeometry y="78" width="230" height="26" as="geometry" />
        </mxCell>
        <mxCell id="lnP99p8MaGAQko8PSYyG-74" value="CrlValidatedID" style="swimlane;fontStyle=0;childLayout=stackLayout;horizontal=1;startSize=26;fillColor=none;horizontalStack=0;resizeParent=1;resizeParentMax=0;resizeLast=0;collapsible=1;marginBottom=0;whiteSpace=wrap;html=1;" vertex="1" parent="lnP99p8MaGAQko8PSYyG-1">
          <mxGeometry x="2111" y="1367" width="220" height="78" as="geometry" />
        </mxCell>
        <mxCell id="lnP99p8MaGAQko8PSYyG-75" value="+ crlHash: OtherHash" style="text;strokeColor=none;fillColor=none;align=left;verticalAlign=top;spacingLeft=4;spacingRight=4;overflow=hidden;rotatable=0;points=[[0,0.5],[1,0.5]];portConstraint=eastwest;whiteSpace=wrap;html=1;" vertex="1" parent="lnP99p8MaGAQko8PSYyG-74">
          <mxGeometry y="26" width="220" height="26" as="geometry" />
        </mxCell>
        <mxCell id="lnP99p8MaGAQko8PSYyG-76" value="+ crlIdentifier: CrlIdentifier" style="text;strokeColor=none;fillColor=none;align=left;verticalAlign=top;spacingLeft=4;spacingRight=4;overflow=hidden;rotatable=0;points=[[0,0.5],[1,0.5]];portConstraint=eastwest;whiteSpace=wrap;html=1;" vertex="1" parent="lnP99p8MaGAQko8PSYyG-74">
          <mxGeometry y="52" width="220" height="26" as="geometry" />
        </mxCell>
        <mxCell id="lnP99p8MaGAQko8PSYyG-77" value="1" style="endArrow=open;html=1;endSize=12;startArrow=diamondThin;startSize=14;startFill=0;edgeStyle=orthogonalEdgeStyle;align=left;verticalAlign=bottom;rounded=0;exitX=0;exitY=0.5;exitDx=0;exitDy=0;entryX=0.339;entryY=0.008;entryDx=0;entryDy=0;entryPerimeter=0;" edge="1" parent="lnP99p8MaGAQko8PSYyG-1" source="lnP99p8MaGAQko8PSYyG-73" target="lnP99p8MaGAQko8PSYyG-74">
          <mxGeometry x="-1" y="3" relative="1" as="geometry">
            <mxPoint x="2032" y="714" as="sourcePoint" />
            <mxPoint x="2192" y="714" as="targetPoint" />
          </mxGeometry>
        </mxCell>
        <mxCell id="lnP99p8MaGAQko8PSYyG-78" value="OtherHashAlgAndValue" style="swimlane;fontStyle=0;childLayout=stackLayout;horizontal=1;startSize=26;fillColor=none;horizontalStack=0;resizeParent=1;resizeParentMax=0;resizeLast=0;collapsible=1;marginBottom=0;whiteSpace=wrap;html=1;" vertex="1" parent="lnP99p8MaGAQko8PSYyG-1">
          <mxGeometry x="2341" y="1463" width="240" height="78" as="geometry" />
        </mxCell>
        <mxCell id="lnP99p8MaGAQko8PSYyG-79" value="+ hashAlgorithm: AlgorithmIdentifier" style="text;strokeColor=none;fillColor=none;align=left;verticalAlign=top;spacingLeft=4;spacingRight=4;overflow=hidden;rotatable=0;points=[[0,0.5],[1,0.5]];portConstraint=eastwest;whiteSpace=wrap;html=1;" vertex="1" parent="lnP99p8MaGAQko8PSYyG-78">
          <mxGeometry y="26" width="240" height="26" as="geometry" />
        </mxCell>
        <mxCell id="lnP99p8MaGAQko8PSYyG-80" value="+ hashValue: BytesVector" style="text;strokeColor=none;fillColor=none;align=left;verticalAlign=top;spacingLeft=4;spacingRight=4;overflow=hidden;rotatable=0;points=[[0,0.5],[1,0.5]];portConstraint=eastwest;whiteSpace=wrap;html=1;" vertex="1" parent="lnP99p8MaGAQko8PSYyG-78">
          <mxGeometry y="52" width="240" height="26" as="geometry" />
        </mxCell>
        <mxCell id="lnP99p8MaGAQko8PSYyG-81" value="1" style="endArrow=open;html=1;endSize=12;startArrow=diamondThin;startSize=14;startFill=0;edgeStyle=orthogonalEdgeStyle;align=left;verticalAlign=bottom;rounded=0;exitX=1;exitY=0.5;exitDx=0;exitDy=0;entryX=0.5;entryY=0;entryDx=0;entryDy=0;" edge="1" parent="lnP99p8MaGAQko8PSYyG-1" source="lnP99p8MaGAQko8PSYyG-75" target="lnP99p8MaGAQko8PSYyG-78">
          <mxGeometry x="-1" y="3" relative="1" as="geometry">
            <mxPoint x="1891" y="1457" as="sourcePoint" />
            <mxPoint x="2111" y="1477" as="targetPoint" />
          </mxGeometry>
        </mxCell>
        <mxCell id="lnP99p8MaGAQko8PSYyG-82" value="AlgorithmIdentifier" style="swimlane;fontStyle=0;childLayout=stackLayout;horizontal=1;startSize=26;fillColor=#dae8fc;horizontalStack=0;resizeParent=1;resizeParentMax=0;resizeLast=0;collapsible=1;marginBottom=0;whiteSpace=wrap;html=1;strokeColor=#6c8ebf;" vertex="1" parent="lnP99p8MaGAQko8PSYyG-1">
          <mxGeometry x="2301" y="1577" width="180" height="78" as="geometry" />
        </mxCell>
        <mxCell id="lnP99p8MaGAQko8PSYyG-83" value="+ algorithm: string" style="text;strokeColor=none;fillColor=none;align=left;verticalAlign=top;spacingLeft=4;spacingRight=4;overflow=hidden;rotatable=0;points=[[0,0.5],[1,0.5]];portConstraint=eastwest;whiteSpace=wrap;html=1;" vertex="1" parent="lnP99p8MaGAQko8PSYyG-82">
          <mxGeometry y="26" width="180" height="26" as="geometry" />
        </mxCell>
        <mxCell id="lnP99p8MaGAQko8PSYyG-84" value="+ parameters: BytesVector" style="text;strokeColor=none;fillColor=none;align=left;verticalAlign=top;spacingLeft=4;spacingRight=4;overflow=hidden;rotatable=0;points=[[0,0.5],[1,0.5]];portConstraint=eastwest;whiteSpace=wrap;html=1;" vertex="1" parent="lnP99p8MaGAQko8PSYyG-82">
          <mxGeometry y="52" width="180" height="26" as="geometry" />
        </mxCell>
        <mxCell id="lnP99p8MaGAQko8PSYyG-85" value="1" style="endArrow=open;html=1;endSize=12;startArrow=diamondThin;startSize=14;startFill=0;edgeStyle=orthogonalEdgeStyle;align=left;verticalAlign=bottom;rounded=0;exitX=0;exitY=0.5;exitDx=0;exitDy=0;entryX=0.06;entryY=0.01;entryDx=0;entryDy=0;entryPerimeter=0;" edge="1" parent="lnP99p8MaGAQko8PSYyG-1" source="lnP99p8MaGAQko8PSYyG-79" target="lnP99p8MaGAQko8PSYyG-82">
          <mxGeometry x="-1" y="3" relative="1" as="geometry">
            <mxPoint x="1621" y="1657" as="sourcePoint" />
            <mxPoint x="1781" y="1657" as="targetPoint" />
          </mxGeometry>
        </mxCell>
        <mxCell id="lnP99p8MaGAQko8PSYyG-86" value="CrlIdentifier" style="swimlane;fontStyle=0;childLayout=stackLayout;horizontal=1;startSize=26;fillColor=none;horizontalStack=0;resizeParent=1;resizeParentMax=0;resizeLast=0;collapsible=1;marginBottom=0;whiteSpace=wrap;html=1;" vertex="1" parent="lnP99p8MaGAQko8PSYyG-1">
          <mxGeometry x="2041" y="1527" width="180" height="104" as="geometry" />
        </mxCell>
        <mxCell id="lnP99p8MaGAQko8PSYyG-87" value="+ crlissuer: string" style="text;strokeColor=none;fillColor=none;align=left;verticalAlign=top;spacingLeft=4;spacingRight=4;overflow=hidden;rotatable=0;points=[[0,0.5],[1,0.5]];portConstraint=eastwest;whiteSpace=wrap;html=1;" vertex="1" parent="lnP99p8MaGAQko8PSYyG-86">
          <mxGeometry y="26" width="180" height="26" as="geometry" />
        </mxCell>
        <mxCell id="lnP99p8MaGAQko8PSYyG-88" value="+ crlIssuedTime: string" style="text;strokeColor=none;fillColor=none;align=left;verticalAlign=top;spacingLeft=4;spacingRight=4;overflow=hidden;rotatable=0;points=[[0,0.5],[1,0.5]];portConstraint=eastwest;whiteSpace=wrap;html=1;" vertex="1" parent="lnP99p8MaGAQko8PSYyG-86">
          <mxGeometry y="52" width="180" height="26" as="geometry" />
        </mxCell>
        <mxCell id="lnP99p8MaGAQko8PSYyG-89" value="+ crlNumber: BytesVector" style="text;strokeColor=none;fillColor=none;align=left;verticalAlign=top;spacingLeft=4;spacingRight=4;overflow=hidden;rotatable=0;points=[[0,0.5],[1,0.5]];portConstraint=eastwest;whiteSpace=wrap;html=1;" vertex="1" parent="lnP99p8MaGAQko8PSYyG-86">
          <mxGeometry y="78" width="180" height="26" as="geometry" />
        </mxCell>
        <mxCell id="lnP99p8MaGAQko8PSYyG-90" value="1" style="endArrow=open;html=1;endSize=12;startArrow=diamondThin;startSize=14;startFill=0;edgeStyle=orthogonalEdgeStyle;align=left;verticalAlign=bottom;rounded=0;exitX=0;exitY=0.5;exitDx=0;exitDy=0;entryX=0.216;entryY=0.015;entryDx=0;entryDy=0;entryPerimeter=0;" edge="1" parent="lnP99p8MaGAQko8PSYyG-1" source="lnP99p8MaGAQko8PSYyG-76" target="lnP99p8MaGAQko8PSYyG-86">
          <mxGeometry x="-1" y="3" relative="1" as="geometry">
            <mxPoint x="2221" y="1617" as="sourcePoint" />
            <mxPoint x="2381" y="1617" as="targetPoint" />
          </mxGeometry>
        </mxCell>
        <mxCell id="lnP99p8MaGAQko8PSYyG-91" value="OcspResponsesID" style="swimlane;fontStyle=0;childLayout=stackLayout;horizontal=1;startSize=26;fillColor=none;horizontalStack=0;resizeParent=1;resizeParentMax=0;resizeLast=0;collapsible=1;marginBottom=0;whiteSpace=wrap;html=1;" vertex="1" parent="lnP99p8MaGAQko8PSYyG-1">
          <mxGeometry x="2558" y="459" width="200" height="78" as="geometry" />
        </mxCell>
        <mxCell id="lnP99p8MaGAQko8PSYyG-92" value="+ ocspIdentifier: OcspIdentifier" style="text;strokeColor=none;fillColor=none;align=left;verticalAlign=top;spacingLeft=4;spacingRight=4;overflow=hidden;rotatable=0;points=[[0,0.5],[1,0.5]];portConstraint=eastwest;whiteSpace=wrap;html=1;" vertex="1" parent="lnP99p8MaGAQko8PSYyG-91">
          <mxGeometry y="26" width="200" height="26" as="geometry" />
        </mxCell>
        <mxCell id="lnP99p8MaGAQko8PSYyG-93" value="+ ocspRepHash: OtherHash" style="text;strokeColor=none;fillColor=none;align=left;verticalAlign=top;spacingLeft=4;spacingRight=4;overflow=hidden;rotatable=0;points=[[0,0.5],[1,0.5]];portConstraint=eastwest;whiteSpace=wrap;html=1;" vertex="1" parent="lnP99p8MaGAQko8PSYyG-91">
          <mxGeometry y="52" width="200" height="26" as="geometry" />
        </mxCell>
        <mxCell id="lnP99p8MaGAQko8PSYyG-94" value="0...n" style="endArrow=open;html=1;endSize=12;startArrow=diamondThin;startSize=14;startFill=0;edgeStyle=orthogonalEdgeStyle;align=left;verticalAlign=bottom;rounded=0;exitX=1;exitY=0.5;exitDx=0;exitDy=0;entryX=0.5;entryY=0;entryDx=0;entryDy=0;" edge="1" parent="lnP99p8MaGAQko8PSYyG-1" source="lnP99p8MaGAQko8PSYyG-72" target="lnP99p8MaGAQko8PSYyG-91">
          <mxGeometry x="-0.6091" y="5" relative="1" as="geometry">
            <mxPoint x="2462" y="814" as="sourcePoint" />
            <mxPoint x="2622" y="814" as="targetPoint" />
            <mxPoint as="offset" />
          </mxGeometry>
        </mxCell>
        <mxCell id="lnP99p8MaGAQko8PSYyG-95" value="1" style="endArrow=open;html=1;endSize=12;startArrow=diamondThin;startSize=14;startFill=0;edgeStyle=orthogonalEdgeStyle;align=left;verticalAlign=bottom;rounded=0;exitX=0;exitY=0.5;exitDx=0;exitDy=0;entryX=0.614;entryY=-0.011;entryDx=0;entryDy=0;entryPerimeter=0;" edge="1" parent="lnP99p8MaGAQko8PSYyG-1" source="lnP99p8MaGAQko8PSYyG-93" target="lnP99p8MaGAQko8PSYyG-78">
          <mxGeometry x="-1" y="3" relative="1" as="geometry">
            <mxPoint x="2432" y="938" as="sourcePoint" />
            <mxPoint x="2592" y="938" as="targetPoint" />
          </mxGeometry>
        </mxCell>
        <mxCell id="lnP99p8MaGAQko8PSYyG-96" value="OcspIdentifier" style="swimlane;fontStyle=0;childLayout=stackLayout;horizontal=1;startSize=26;fillColor=none;horizontalStack=0;resizeParent=1;resizeParentMax=0;resizeLast=0;collapsible=1;marginBottom=0;whiteSpace=wrap;html=1;" vertex="1" parent="lnP99p8MaGAQko8PSYyG-1">
          <mxGeometry x="2732" y="553" width="260" height="104" as="geometry" />
        </mxCell>
        <mxCell id="lnP99p8MaGAQko8PSYyG-97" value="+ ocspResponderID_name: string" style="text;strokeColor=none;fillColor=none;align=left;verticalAlign=top;spacingLeft=4;spacingRight=4;overflow=hidden;rotatable=0;points=[[0,0.5],[1,0.5]];portConstraint=eastwest;whiteSpace=wrap;html=1;" vertex="1" parent="lnP99p8MaGAQko8PSYyG-96">
          <mxGeometry y="26" width="260" height="26" as="geometry" />
        </mxCell>
        <mxCell id="lnP99p8MaGAQko8PSYyG-98" value="+ ocspResponderID_hash: BytesVector" style="text;strokeColor=none;fillColor=none;align=left;verticalAlign=top;spacingLeft=4;spacingRight=4;overflow=hidden;rotatable=0;points=[[0,0.5],[1,0.5]];portConstraint=eastwest;whiteSpace=wrap;html=1;" vertex="1" parent="lnP99p8MaGAQko8PSYyG-96">
          <mxGeometry y="52" width="260" height="26" as="geometry" />
        </mxCell>
        <mxCell id="lnP99p8MaGAQko8PSYyG-99" value="+ producedAt: BytesVector" style="text;strokeColor=none;fillColor=none;align=left;verticalAlign=top;spacingLeft=4;spacingRight=4;overflow=hidden;rotatable=0;points=[[0,0.5],[1,0.5]];portConstraint=eastwest;whiteSpace=wrap;html=1;" vertex="1" parent="lnP99p8MaGAQko8PSYyG-96">
          <mxGeometry y="78" width="260" height="26" as="geometry" />
        </mxCell>
        <mxCell id="lnP99p8MaGAQko8PSYyG-100" value="1" style="endArrow=open;html=1;endSize=12;startArrow=diamondThin;startSize=14;startFill=0;edgeStyle=orthogonalEdgeStyle;align=left;verticalAlign=bottom;rounded=0;exitX=1;exitY=0.5;exitDx=0;exitDy=0;entryX=0.479;entryY=-0.002;entryDx=0;entryDy=0;entryPerimeter=0;" edge="1" parent="lnP99p8MaGAQko8PSYyG-1" source="lnP99p8MaGAQko8PSYyG-92" target="lnP99p8MaGAQko8PSYyG-96">
          <mxGeometry x="-1" y="3" relative="1" as="geometry">
            <mxPoint x="2272" y="1014" as="sourcePoint" />
            <mxPoint x="2857.6399999999994" y="886.0239999999999" as="targetPoint" />
          </mxGeometry>
        </mxCell>
        <mxCell id="lnP99p8MaGAQko8PSYyG-101" value="1" style="endArrow=open;html=1;endSize=12;startArrow=diamondThin;startSize=14;startFill=0;edgeStyle=orthogonalEdgeStyle;align=left;verticalAlign=bottom;rounded=0;entryX=1;entryY=0.25;entryDx=0;entryDy=0;exitX=0;exitY=0.5;exitDx=0;exitDy=0;" edge="1" parent="lnP99p8MaGAQko8PSYyG-1" source="lnP99p8MaGAQko8PSYyG-71" target="lnP99p8MaGAQko8PSYyG-66">
          <mxGeometry x="-1" y="3" relative="1" as="geometry">
            <mxPoint x="1596" y="321" as="sourcePoint" />
            <mxPoint x="1756" y="321" as="targetPoint" />
          </mxGeometry>
        </mxCell>
        <mxCell id="lnP99p8MaGAQko8PSYyG-102" value="" style="endArrow=none;startArrow=block;endFill=0;startFill=1;html=1;rounded=0;exitX=0.993;exitY=0.055;exitDx=0;exitDy=0;exitPerimeter=0;entryX=0;entryY=0.25;entryDx=0;entryDy=0;fillColor=#f8cecc;strokeColor=#b85450;strokeWidth=2;" edge="1" parent="lnP99p8MaGAQko8PSYyG-1" source="lnP99p8MaGAQko8PSYyG-37" target="lnP99p8MaGAQko8PSYyG-91">
          <mxGeometry width="160" relative="1" as="geometry">
            <mxPoint x="1749" y="414" as="sourcePoint" />
            <mxPoint x="1909" y="414" as="targetPoint" />
          </mxGeometry>
        </mxCell>
        <mxCell id="lnP99p8MaGAQko8PSYyG-103" value="logical reference to a response" style="edgeLabel;html=1;align=center;verticalAlign=middle;resizable=0;points=[];" vertex="1" connectable="0" parent="lnP99p8MaGAQko8PSYyG-102">
          <mxGeometry x="-0.2189" relative="1" as="geometry">
            <mxPoint as="offset" />
          </mxGeometry>
        </mxCell>
        <mxCell id="lnP99p8MaGAQko8PSYyG-104" value="" style="endArrow=none;startArrow=block;endFill=0;startFill=1;html=1;rounded=0;entryX=0;entryY=0.25;entryDx=0;entryDy=0;exitX=0.993;exitY=0.865;exitDx=0;exitDy=0;exitPerimeter=0;fillColor=#f8cecc;strokeColor=#b85450;strokeWidth=2;" edge="1" parent="lnP99p8MaGAQko8PSYyG-1" source="lnP99p8MaGAQko8PSYyG-11" target="lnP99p8MaGAQko8PSYyG-74">
          <mxGeometry width="160" relative="1" as="geometry">
            <mxPoint x="1589" y="474" as="sourcePoint" />
            <mxPoint x="1749" y="474" as="targetPoint" />
          </mxGeometry>
        </mxCell>
        <mxCell id="lnP99p8MaGAQko8PSYyG-105" value="logical reference to&amp;nbsp; a CRL" style="edgeLabel;html=1;align=center;verticalAlign=middle;resizable=0;points=[];" vertex="1" connectable="0" parent="lnP99p8MaGAQko8PSYyG-104">
          <mxGeometry x="0.0076" y="2" relative="1" as="geometry">
            <mxPoint as="offset" />
          </mxGeometry>
        </mxCell>
        <mxCell id="lnP99p8MaGAQko8PSYyG-106" value="&lt;b&gt;&lt;font style=&quot;font-size: 26px;&quot;&gt;X_LONG Revocation data&lt;/font&gt;&lt;/b&gt;" style="shape=umlFrame;whiteSpace=wrap;html=1;pointerEvents=0;width=393;height=97;strokeWidth=3;container=1;fillColor=#ffe6cc;strokeColor=#d79b00;" vertex="1" parent="lnP99p8MaGAQko8PSYyG-1">
          <mxGeometry width="3117" height="2089" as="geometry" />
        </mxCell>
        <mxCell id="lnP99p8MaGAQko8PSYyG-107" value="&lt;font style=&quot;font-size: 28px;&quot;&gt;&lt;b&gt;OCSP Response&lt;/b&gt;&lt;/font&gt;" style="shape=umlFrame;whiteSpace=wrap;html=1;pointerEvents=0;recursiveResize=0;container=1;collapsible=0;width=269;dashed=1;height=80;strokeWidth=3;" vertex="1" parent="lnP99p8MaGAQko8PSYyG-1">
          <mxGeometry x="1040" y="294" width="777" height="943" as="geometry" />
        </mxCell>
        <mxCell id="lnP99p8MaGAQko8PSYyG-108" value="&lt;font style=&quot;font-size: 31px;&quot;&gt;&lt;b&gt;CRL Response&lt;/b&gt;&lt;/font&gt;" style="shape=umlFrame;whiteSpace=wrap;html=1;pointerEvents=0;recursiveResize=0;container=1;collapsible=0;width=278;height=85;dashed=1;strokeWidth=3;" vertex="1" parent="lnP99p8MaGAQko8PSYyG-1">
          <mxGeometry x="49" y="1268" width="1137" height="745" as="geometry" />
        </mxCell>
        <mxCell id="lnP99p8MaGAQko8PSYyG-109" value="&lt;font size=&quot;1&quot;&gt;&lt;b&gt;&lt;font style=&quot;font-size: 25px;&quot;&gt;CRL Reference&lt;/font&gt;&lt;/b&gt;&lt;/font&gt;" style="shape=umlFrame;whiteSpace=wrap;html=1;pointerEvents=0;recursiveResize=0;container=1;collapsible=0;width=230;height=69;dashed=1;strokeWidth=3;" vertex="1" parent="lnP99p8MaGAQko8PSYyG-1">
          <mxGeometry x="1840" y="1301" width="800" height="454" as="geometry" />
        </mxCell>
        <mxCell id="lnP99p8MaGAQko8PSYyG-110" value="&lt;b&gt;&lt;font style=&quot;font-size: 32px;&quot;&gt;OCSP Referense&lt;/font&gt;&lt;/b&gt;" style="shape=umlFrame;whiteSpace=wrap;html=1;pointerEvents=0;recursiveResize=0;container=1;collapsible=0;width=297;dashed=1;strokeWidth=3;height=110;" vertex="1" parent="lnP99p8MaGAQko8PSYyG-1">
          <mxGeometry x="2295" y="314" width="723" height="454" as="geometry" />
        </mxCell>
      </root>
    </mxGraphModel>
  </diagram>
  <diagram id="M-99KiwbqvNfxm6ek-Rf" name="X_LONG Certificates">
    <mxGraphModel dx="2607" dy="1495" grid="0" gridSize="10" guides="1" tooltips="1" connect="1" arrows="1" fold="1" page="1" pageScale="1" pageWidth="827" pageHeight="1169" math="0" shadow="0">
      <root>
        <mxCell id="0" />
        <mxCell id="1" parent="0" />
        <mxCell id="0XLS-42xelDLNOpOlfyU-1" value="" style="group" vertex="1" connectable="0" parent="1">
          <mxGeometry x="37" y="43" width="1016" height="533" as="geometry" />
        </mxCell>
        <mxCell id="0XLS-42xelDLNOpOlfyU-3" value="OtherCertID" style="swimlane;fontStyle=0;childLayout=stackLayout;horizontal=1;startSize=26;fillColor=none;horizontalStack=0;resizeParent=1;resizeParentMax=0;resizeLast=0;collapsible=1;marginBottom=0;whiteSpace=wrap;html=1;" vertex="1" parent="0XLS-42xelDLNOpOlfyU-1">
          <mxGeometry x="655.6068376068376" y="112.65217391304348" width="237.94871794871796" height="77.77391304347826" as="geometry" />
        </mxCell>
        <mxCell id="0XLS-42xelDLNOpOlfyU-4" value="+ otherCertHash: OtherHash" style="text;strokeColor=none;fillColor=none;align=left;verticalAlign=top;spacingLeft=4;spacingRight=4;overflow=hidden;rotatable=0;points=[[0,0.5],[1,0.5]];portConstraint=eastwest;whiteSpace=wrap;html=1;" vertex="1" parent="0XLS-42xelDLNOpOlfyU-3">
          <mxGeometry y="26" width="237.94871794871796" height="25.88695652173913" as="geometry" />
        </mxCell>
        <mxCell id="0XLS-42xelDLNOpOlfyU-5" value="+ issuerSerial: IssuerSerial" style="text;strokeColor=none;fillColor=none;align=left;verticalAlign=top;spacingLeft=4;spacingRight=4;overflow=hidden;rotatable=0;points=[[0,0.5],[1,0.5]];portConstraint=eastwest;whiteSpace=wrap;html=1;" vertex="1" parent="0XLS-42xelDLNOpOlfyU-3">
          <mxGeometry y="51.88695652173913" width="237.94871794871796" height="25.88695652173913" as="geometry" />
        </mxCell>
        <mxCell id="0XLS-42xelDLNOpOlfyU-6" value="OtherHashAlgAndValue" style="swimlane;fontStyle=0;childLayout=stackLayout;horizontal=1;startSize=26;fillColor=none;horizontalStack=0;resizeParent=1;resizeParentMax=0;resizeLast=0;collapsible=1;marginBottom=0;whiteSpace=wrap;html=1;" vertex="1" parent="0XLS-42xelDLNOpOlfyU-1">
          <mxGeometry x="536.1367521367522" y="238.10434782608695" width="257.77777777777777" height="77.77391304347826" as="geometry" />
        </mxCell>
        <mxCell id="0XLS-42xelDLNOpOlfyU-7" value="+ hashAlgorithm: AlgorithmIdentifier" style="text;strokeColor=none;fillColor=none;align=left;verticalAlign=top;spacingLeft=4;spacingRight=4;overflow=hidden;rotatable=0;points=[[0,0.5],[1,0.5]];portConstraint=eastwest;whiteSpace=wrap;html=1;" vertex="1" parent="0XLS-42xelDLNOpOlfyU-6">
          <mxGeometry y="26" width="257.77777777777777" height="25.88695652173913" as="geometry" />
        </mxCell>
        <mxCell id="0XLS-42xelDLNOpOlfyU-8" value="+ hashValue: OtherHashValue (BytesVector)" style="text;strokeColor=none;fillColor=none;align=left;verticalAlign=top;spacingLeft=4;spacingRight=4;overflow=hidden;rotatable=0;points=[[0,0.5],[1,0.5]];portConstraint=eastwest;whiteSpace=wrap;html=1;" vertex="1" parent="0XLS-42xelDLNOpOlfyU-6">
          <mxGeometry y="51.88695652173913" width="257.77777777777777" height="25.88695652173913" as="geometry" />
        </mxCell>
        <mxCell id="0XLS-42xelDLNOpOlfyU-9" value="AlgorithmIdentifier" style="swimlane;fontStyle=0;childLayout=stackLayout;horizontal=1;startSize=26;fillColor=#dae8fc;horizontalStack=0;resizeParent=1;resizeParentMax=0;resizeLast=0;collapsible=1;marginBottom=0;whiteSpace=wrap;html=1;strokeColor=#6c8ebf;" vertex="1" parent="0XLS-42xelDLNOpOlfyU-1">
          <mxGeometry x="416.1709401709402" y="363.5565217391304" width="178.46153846153845" height="77.77391304347826" as="geometry" />
        </mxCell>
        <mxCell id="0XLS-42xelDLNOpOlfyU-10" value="+ algorithm: string" style="text;strokeColor=none;fillColor=none;align=left;verticalAlign=top;spacingLeft=4;spacingRight=4;overflow=hidden;rotatable=0;points=[[0,0.5],[1,0.5]];portConstraint=eastwest;whiteSpace=wrap;html=1;" vertex="1" parent="0XLS-42xelDLNOpOlfyU-9">
          <mxGeometry y="26" width="178.46153846153845" height="25.88695652173913" as="geometry" />
        </mxCell>
        <mxCell id="0XLS-42xelDLNOpOlfyU-11" value="+ parameters: BytesVector" style="text;strokeColor=none;fillColor=none;align=left;verticalAlign=top;spacingLeft=4;spacingRight=4;overflow=hidden;rotatable=0;points=[[0,0.5],[1,0.5]];portConstraint=eastwest;whiteSpace=wrap;html=1;" vertex="1" parent="0XLS-42xelDLNOpOlfyU-9">
          <mxGeometry y="51.88695652173913" width="178.46153846153845" height="25.88695652173913" as="geometry" />
        </mxCell>
        <mxCell id="0XLS-42xelDLNOpOlfyU-13" value="1" style="endArrow=open;html=1;endSize=12;startArrow=diamondThin;startSize=14;startFill=0;edgeStyle=orthogonalEdgeStyle;align=left;verticalAlign=bottom;rounded=0;entryX=0.134;entryY=0.008;entryDx=0;entryDy=0;entryPerimeter=0;" edge="1" parent="0XLS-42xelDLNOpOlfyU-1" source="0XLS-42xelDLNOpOlfyU-4" target="0XLS-42xelDLNOpOlfyU-6">
          <mxGeometry x="-1" y="3" relative="1" as="geometry">
            <mxPoint x="1805.1965811965813" y="808.6130434782608" as="sourcePoint" />
            <mxPoint x="1973.7435897435898" y="858.3956521739132" as="targetPoint" />
          </mxGeometry>
        </mxCell>
        <mxCell id="0XLS-42xelDLNOpOlfyU-14" value="1" style="endArrow=open;html=1;endSize=12;startArrow=diamondThin;startSize=14;startFill=0;edgeStyle=orthogonalEdgeStyle;align=left;verticalAlign=bottom;rounded=0;exitX=0;exitY=0.5;exitDx=0;exitDy=0;" edge="1" parent="0XLS-42xelDLNOpOlfyU-1" source="0XLS-42xelDLNOpOlfyU-8" target="0XLS-42xelDLNOpOlfyU-9">
          <mxGeometry x="-1" y="3" relative="1" as="geometry">
            <mxPoint x="510.35897435897436" y="243.08260869565217" as="sourcePoint" />
            <mxPoint x="763.1794871794872" y="414.33478260869566" as="targetPoint" />
          </mxGeometry>
        </mxCell>
        <mxCell id="0XLS-42xelDLNOpOlfyU-19" value="" style="group" vertex="1" connectable="0" parent="0XLS-42xelDLNOpOlfyU-1">
          <mxGeometry width="995" height="533" as="geometry" />
        </mxCell>
        <mxCell id="0XLS-42xelDLNOpOlfyU-15" value="&lt;b style=&quot;font-size: 26px;&quot;&gt;&lt;font style=&quot;font-size: 26px;&quot;&gt;X_LONG Certificates&lt;br&gt;&lt;/font&gt;&lt;/b&gt;" style="shape=umlFrame;whiteSpace=wrap;html=1;pointerEvents=0;recursiveResize=0;container=1;collapsible=0;width=309;strokeWidth=3;height=89;fillColor=#e1d5e7;strokeColor=#9673a6;" vertex="1" parent="0XLS-42xelDLNOpOlfyU-19">
          <mxGeometry width="995" height="533" as="geometry" />
        </mxCell>
        <UserObject label="&lt;b&gt;&lt;font style=&quot;font-size: 19px;&quot;&gt;Certificate&amp;nbsp; value&lt;/font&gt;&lt;/b&gt;" link="data:page/id,1bFHnAT85-PuNNmaz-Uw" id="0XLS-42xelDLNOpOlfyU-16">
          <mxCell style="html=1;whiteSpace=wrap;fillColor=#d5e8d4;strokeColor=#82b366;" vertex="1" parent="0XLS-42xelDLNOpOlfyU-15">
            <mxGeometry x="38" y="282" width="192" height="50" as="geometry" />
          </mxCell>
        </UserObject>
        <mxCell id="0XLS-42xelDLNOpOlfyU-12" value="&lt;font size=&quot;1&quot;&gt;&lt;b&gt;&lt;font style=&quot;font-size: 26px;&quot;&gt;Certificate ID&lt;br&gt;&lt;/font&gt;&lt;/b&gt;&lt;/font&gt;" style="shape=umlFrame;whiteSpace=wrap;html=1;pointerEvents=0;recursiveResize=0;container=1;collapsible=0;width=213;strokeWidth=2;height=67;dashed=1;" vertex="1" parent="0XLS-42xelDLNOpOlfyU-19">
          <mxGeometry x="391" y="33" width="527" height="434" as="geometry" />
        </mxCell>
        <mxCell id="0XLS-42xelDLNOpOlfyU-17" value="" style="endArrow=none;startArrow=block;endFill=0;startFill=1;html=1;rounded=0;fillColor=#f8cecc;strokeColor=#b85450;strokeWidth=2;entryX=0.006;entryY=0.074;entryDx=0;entryDy=0;entryPerimeter=0;exitX=1;exitY=0.5;exitDx=0;exitDy=0;" edge="1" parent="0XLS-42xelDLNOpOlfyU-19" source="0XLS-42xelDLNOpOlfyU-16" target="0XLS-42xelDLNOpOlfyU-12">
          <mxGeometry width="160" relative="1" as="geometry">
            <mxPoint x="1150" y="415.44000000000005" as="sourcePoint" />
            <mxPoint x="273" y="66" as="targetPoint" />
          </mxGeometry>
        </mxCell>
        <mxCell id="0XLS-42xelDLNOpOlfyU-18" value="logical reference to value" style="edgeLabel;html=1;align=center;verticalAlign=middle;resizable=0;points=[];" vertex="1" connectable="0" parent="0XLS-42xelDLNOpOlfyU-17">
          <mxGeometry x="-0.2189" relative="1" as="geometry">
            <mxPoint x="57" y="8" as="offset" />
          </mxGeometry>
        </mxCell>
      </root>
    </mxGraphModel>
  </diagram>
  <diagram id="0wh_hYcdUtD7hr8H2msW" name="Strategy">
    <mxGraphModel dx="2049" dy="2343" grid="0" gridSize="10" guides="1" tooltips="1" connect="1" arrows="1" fold="1" page="1" pageScale="1" pageWidth="827" pageHeight="1169" math="0" shadow="0">
      <root>
        <mxCell id="0" />
        <mxCell id="1" parent="0" />
        <mxCell id="RlwIq9C2JBTWlbVYyaGm-1" value="" style="group" vertex="1" connectable="0" parent="1">
          <mxGeometry x="59" y="-1085" width="1088" height="1001" as="geometry" />
        </mxCell>
        <mxCell id="RlwIq9C2JBTWlbVYyaGm-2" value="&lt;b&gt;XLCertsData&lt;/b&gt;" style="swimlane;fontStyle=0;childLayout=stackLayout;horizontal=1;startSize=26;fillColor=none;horizontalStack=0;resizeParent=1;resizeParentMax=0;resizeLast=0;collapsible=1;marginBottom=0;whiteSpace=wrap;html=1;container=0;" vertex="1" parent="RlwIq9C2JBTWlbVYyaGm-1">
          <mxGeometry x="409" y="498" width="250" height="156" as="geometry" />
        </mxCell>
        <mxCell id="RlwIq9C2JBTWlbVYyaGm-3" value="Use" style="endArrow=open;endSize=12;dashed=1;html=1;rounded=0;entryX=0.5;entryY=0;entryDx=0;entryDy=0;exitX=0.529;exitY=1.048;exitDx=0;exitDy=0;exitPerimeter=0;" edge="1" parent="RlwIq9C2JBTWlbVYyaGm-1" source="RlwIq9C2JBTWlbVYyaGm-23" target="RlwIq9C2JBTWlbVYyaGm-2">
          <mxGeometry width="160" relative="1" as="geometry">
            <mxPoint x="565" y="415" as="sourcePoint" />
            <mxPoint x="725" y="415" as="targetPoint" />
          </mxGeometry>
        </mxCell>
        <mxCell id="RlwIq9C2JBTWlbVYyaGm-4" value="1" style="endArrow=open;html=1;endSize=12;startArrow=diamondThin;startSize=14;startFill=0;edgeStyle=orthogonalEdgeStyle;align=left;verticalAlign=bottom;rounded=0;entryX=0.22;entryY=0.005;entryDx=0;entryDy=0;entryPerimeter=0;exitX=1;exitY=0.5;exitDx=0;exitDy=0;" edge="1" parent="RlwIq9C2JBTWlbVYyaGm-1" source="RlwIq9C2JBTWlbVYyaGm-28" target="RlwIq9C2JBTWlbVYyaGm-25">
          <mxGeometry x="-1" y="3" relative="1" as="geometry">
            <mxPoint x="640" y="531" as="sourcePoint" />
            <mxPoint x="2176.1499999999996" y="930.4719999999998" as="targetPoint" />
          </mxGeometry>
        </mxCell>
        <mxCell id="RlwIq9C2JBTWlbVYyaGm-5" value="1" style="endArrow=open;html=1;endSize=12;startArrow=diamondThin;startSize=14;startFill=0;edgeStyle=orthogonalEdgeStyle;align=left;verticalAlign=bottom;rounded=0;exitX=1;exitY=0.5;exitDx=0;exitDy=0;" edge="1" parent="RlwIq9C2JBTWlbVYyaGm-1" source="RlwIq9C2JBTWlbVYyaGm-27" target="RlwIq9C2JBTWlbVYyaGm-25">
          <mxGeometry x="-1" y="3" relative="1" as="geometry">
            <mxPoint x="970" y="820" as="sourcePoint" />
            <mxPoint x="3281" y="926" as="targetPoint" />
          </mxGeometry>
        </mxCell>
        <mxCell id="RlwIq9C2JBTWlbVYyaGm-6" value="1" style="endArrow=open;html=1;endSize=12;startArrow=diamondThin;startSize=14;startFill=0;edgeStyle=orthogonalEdgeStyle;align=left;verticalAlign=bottom;rounded=0;exitX=0;exitY=0.5;exitDx=0;exitDy=0;" edge="1" parent="RlwIq9C2JBTWlbVYyaGm-1" source="RlwIq9C2JBTWlbVYyaGm-31" target="RlwIq9C2JBTWlbVYyaGm-26">
          <mxGeometry x="-1" y="3" relative="1" as="geometry">
            <mxPoint x="293" y="951" as="sourcePoint" />
            <mxPoint x="378.71200000000044" y="854" as="targetPoint" />
          </mxGeometry>
        </mxCell>
        <mxCell id="RlwIq9C2JBTWlbVYyaGm-7" value="1" style="endArrow=open;html=1;endSize=12;startArrow=diamondThin;startSize=14;startFill=0;edgeStyle=orthogonalEdgeStyle;align=left;verticalAlign=bottom;rounded=0;exitX=0;exitY=0.5;exitDx=0;exitDy=0;entryX=0.413;entryY=0.023;entryDx=0;entryDy=0;entryPerimeter=0;" edge="1" parent="RlwIq9C2JBTWlbVYyaGm-1" source="RlwIq9C2JBTWlbVYyaGm-30" target="RlwIq9C2JBTWlbVYyaGm-26">
          <mxGeometry x="-1" y="3" relative="1" as="geometry">
            <mxPoint x="234" y="641" as="sourcePoint" />
            <mxPoint x="350.78099999999995" y="856.1700000000001" as="targetPoint" />
          </mxGeometry>
        </mxCell>
        <mxCell id="RlwIq9C2JBTWlbVYyaGm-8" value="" style="group" vertex="1" connectable="0" parent="RlwIq9C2JBTWlbVYyaGm-1">
          <mxGeometry width="1088" height="1001" as="geometry" />
        </mxCell>
        <mxCell id="RlwIq9C2JBTWlbVYyaGm-9" value="&lt;div&gt;«interface»&lt;b&gt;&lt;br&gt;&lt;/b&gt;&lt;/div&gt;&lt;div&gt;&lt;b&gt;ICheckStrategy&lt;/b&gt;&lt;/div&gt;" style="html=1;whiteSpace=wrap;container=0;" vertex="1" parent="RlwIq9C2JBTWlbVYyaGm-8">
          <mxGeometry x="331" y="59" width="110" height="50" as="geometry" />
        </mxCell>
        <mxCell id="RlwIq9C2JBTWlbVYyaGm-10" value="&lt;b&gt;BesChecks&lt;/b&gt;" style="swimlane;fontStyle=0;childLayout=stackLayout;horizontal=1;startSize=26;fillColor=none;horizontalStack=0;resizeParent=1;resizeParentMax=0;resizeLast=0;collapsible=1;marginBottom=0;whiteSpace=wrap;html=1;container=0;" vertex="1" parent="RlwIq9C2JBTWlbVYyaGm-8">
          <mxGeometry x="316" y="159" width="140" height="52" as="geometry" />
        </mxCell>
        <mxCell id="RlwIq9C2JBTWlbVYyaGm-11" value="&lt;b&gt;TChecks&lt;/b&gt;" style="swimlane;fontStyle=0;childLayout=stackLayout;horizontal=1;startSize=26;fillColor=none;horizontalStack=0;resizeParent=1;resizeParentMax=0;resizeLast=0;collapsible=1;marginBottom=0;whiteSpace=wrap;html=1;container=0;" vertex="1" parent="RlwIq9C2JBTWlbVYyaGm-8">
          <mxGeometry x="431" y="267" width="140" height="52" as="geometry" />
        </mxCell>
        <mxCell id="RlwIq9C2JBTWlbVYyaGm-12" value="&lt;b&gt;XChecks&lt;/b&gt;" style="swimlane;fontStyle=0;childLayout=stackLayout;horizontal=1;startSize=26;fillColor=none;horizontalStack=0;resizeParent=1;resizeParentMax=0;resizeLast=0;collapsible=1;marginBottom=0;whiteSpace=wrap;html=1;container=0;" vertex="1" parent="RlwIq9C2JBTWlbVYyaGm-8">
          <mxGeometry x="431" y="359" width="140" height="52" as="geometry" />
        </mxCell>
        <mxCell id="RlwIq9C2JBTWlbVYyaGm-13" value="&lt;b&gt;PKSChecks&lt;/b&gt;" style="swimlane;fontStyle=0;childLayout=stackLayout;horizontal=1;startSize=26;fillColor=none;horizontalStack=0;resizeParent=1;resizeParentMax=0;resizeLast=0;collapsible=1;marginBottom=0;whiteSpace=wrap;html=1;container=0;" vertex="1" parent="RlwIq9C2JBTWlbVYyaGm-8">
          <mxGeometry x="251" y="267" width="140" height="52" as="geometry" />
        </mxCell>
        <mxCell id="RlwIq9C2JBTWlbVYyaGm-14" value="&lt;b&gt;CheckResult&lt;/b&gt; " style="html=1;whiteSpace=wrap;container=0;" vertex="1" parent="RlwIq9C2JBTWlbVYyaGm-8">
          <mxGeometry x="77" y="107" width="110" height="50" as="geometry" />
        </mxCell>
        <mxCell id="RlwIq9C2JBTWlbVYyaGm-15" value="&lt;b&gt;&lt;font style=&quot;font-size: 26px;&quot;&gt;Strategy&lt;/font&gt;&lt;/b&gt;" style="shape=umlFrame;whiteSpace=wrap;html=1;pointerEvents=0;recursiveResize=0;container=1;collapsible=0;width=183;height=51;strokeWidth=3;fillColor=#b0e3e6;strokeColor=#0e8088;" vertex="1" parent="RlwIq9C2JBTWlbVYyaGm-8">
          <mxGeometry width="1088" height="1001" as="geometry" />
        </mxCell>
        <mxCell id="RlwIq9C2JBTWlbVYyaGm-16" value="" style="endArrow=block;dashed=1;endFill=0;endSize=12;html=1;rounded=0;entryX=0.5;entryY=1;entryDx=0;entryDy=0;exitX=0.5;exitY=0;exitDx=0;exitDy=0;" edge="1" parent="RlwIq9C2JBTWlbVYyaGm-8" source="RlwIq9C2JBTWlbVYyaGm-10" target="RlwIq9C2JBTWlbVYyaGm-9">
          <mxGeometry width="160" relative="1" as="geometry">
            <mxPoint x="-14" y="219" as="sourcePoint" />
            <mxPoint x="146" y="219" as="targetPoint" />
          </mxGeometry>
        </mxCell>
        <mxCell id="RlwIq9C2JBTWlbVYyaGm-17" value="Extends" style="endArrow=block;endSize=16;endFill=0;html=1;rounded=0;exitX=0.456;exitY=-0.008;exitDx=0;exitDy=0;exitPerimeter=0;entryX=0.484;entryY=0.968;entryDx=0;entryDy=0;entryPerimeter=0;" edge="1" parent="RlwIq9C2JBTWlbVYyaGm-8" source="RlwIq9C2JBTWlbVYyaGm-11" target="RlwIq9C2JBTWlbVYyaGm-21">
          <mxGeometry x="-0.3434" y="1" width="160" relative="1" as="geometry">
            <mxPoint x="-14" y="219" as="sourcePoint" />
            <mxPoint x="495" y="219" as="targetPoint" />
            <mxPoint as="offset" />
          </mxGeometry>
        </mxCell>
        <mxCell id="RlwIq9C2JBTWlbVYyaGm-18" value="Extends" style="endArrow=block;endSize=16;endFill=0;html=1;rounded=0;exitX=0.449;exitY=0.056;exitDx=0;exitDy=0;exitPerimeter=0;entryX=0.502;entryY=0.949;entryDx=0;entryDy=0;entryPerimeter=0;" edge="1" parent="RlwIq9C2JBTWlbVYyaGm-8" source="RlwIq9C2JBTWlbVYyaGm-12" target="RlwIq9C2JBTWlbVYyaGm-22">
          <mxGeometry x="-0.3434" y="1" width="160" relative="1" as="geometry">
            <mxPoint x="496" y="339" as="sourcePoint" />
            <mxPoint x="506" y="319" as="targetPoint" />
            <mxPoint as="offset" />
          </mxGeometry>
        </mxCell>
        <mxCell id="RlwIq9C2JBTWlbVYyaGm-19" value="Extends" style="endArrow=block;endSize=16;endFill=0;html=1;rounded=0;exitX=0.5;exitY=0;exitDx=0;exitDy=0;entryX=0.458;entryY=1.014;entryDx=0;entryDy=0;entryPerimeter=0;" edge="1" parent="RlwIq9C2JBTWlbVYyaGm-8" source="RlwIq9C2JBTWlbVYyaGm-13" target="RlwIq9C2JBTWlbVYyaGm-21">
          <mxGeometry x="-0.3434" y="1" width="160" relative="1" as="geometry">
            <mxPoint x="505" y="277" as="sourcePoint" />
            <mxPoint x="394" y="220" as="targetPoint" />
            <mxPoint as="offset" />
          </mxGeometry>
        </mxCell>
        <mxCell id="RlwIq9C2JBTWlbVYyaGm-20" value="return" style="html=1;verticalAlign=bottom;endArrow=open;dashed=1;endSize=8;curved=0;rounded=0;exitX=0;exitY=0.75;exitDx=0;exitDy=0;entryX=1;entryY=0.5;entryDx=0;entryDy=0;" edge="1" parent="RlwIq9C2JBTWlbVYyaGm-8" source="RlwIq9C2JBTWlbVYyaGm-9" target="RlwIq9C2JBTWlbVYyaGm-14">
          <mxGeometry relative="1" as="geometry">
            <mxPoint x="107" y="303" as="sourcePoint" />
            <mxPoint x="27" y="303" as="targetPoint" />
          </mxGeometry>
        </mxCell>
        <mxCell id="RlwIq9C2JBTWlbVYyaGm-21" value="All() : CheckResult" style="text;strokeColor=none;fillColor=none;align=left;verticalAlign=top;spacingLeft=4;spacingRight=4;overflow=hidden;rotatable=0;points=[[0,0.5],[1,0.5]];portConstraint=eastwest;whiteSpace=wrap;html=1;container=0;" vertex="1" parent="RlwIq9C2JBTWlbVYyaGm-8">
          <mxGeometry x="316" y="185" width="140" height="26" as="geometry" />
        </mxCell>
        <mxCell id="RlwIq9C2JBTWlbVYyaGm-22" value="All() : CheckResult" style="text;strokeColor=none;fillColor=none;align=left;verticalAlign=top;spacingLeft=4;spacingRight=4;overflow=hidden;rotatable=0;points=[[0,0.5],[1,0.5]];portConstraint=eastwest;whiteSpace=wrap;html=1;container=0;" vertex="1" parent="RlwIq9C2JBTWlbVYyaGm-8">
          <mxGeometry x="431" y="293" width="140" height="26" as="geometry" />
        </mxCell>
        <mxCell id="RlwIq9C2JBTWlbVYyaGm-23" value="All() : CheckResult" style="text;strokeColor=none;fillColor=none;align=left;verticalAlign=top;spacingLeft=4;spacingRight=4;overflow=hidden;rotatable=0;points=[[0,0.5],[1,0.5]];portConstraint=eastwest;whiteSpace=wrap;html=1;container=0;" vertex="1" parent="RlwIq9C2JBTWlbVYyaGm-8">
          <mxGeometry x="431" y="385" width="140" height="26" as="geometry" />
        </mxCell>
        <mxCell id="RlwIq9C2JBTWlbVYyaGm-24" value="All() : CheckResult" style="text;strokeColor=none;fillColor=none;align=left;verticalAlign=top;spacingLeft=4;spacingRight=4;overflow=hidden;rotatable=0;points=[[0,0.5],[1,0.5]];portConstraint=eastwest;whiteSpace=wrap;html=1;container=0;" vertex="1" parent="RlwIq9C2JBTWlbVYyaGm-8">
          <mxGeometry x="251" y="293" width="140" height="26" as="geometry" />
        </mxCell>
        <UserObject label="&lt;font style=&quot;font-size: 26px;&quot;&gt;&lt;b&gt;Xlong Revocation Data&lt;/b&gt;&lt;/font&gt;" link="data:page/id,zLn0AmfZRJy72BbEqt7_" id="RlwIq9C2JBTWlbVYyaGm-25">
          <mxCell style="html=1;whiteSpace=wrap;fillColor=#ffe6cc;strokeColor=#d79b00;container=0;" vertex="1" parent="RlwIq9C2JBTWlbVYyaGm-1">
            <mxGeometry x="627" y="749" width="347" height="118" as="geometry" />
          </mxCell>
        </UserObject>
        <UserObject label="&lt;font size=&quot;1&quot;&gt;&lt;b style=&quot;font-size: 26px;&quot;&gt;X_LONG Certificates&lt;/b&gt;&lt;/font&gt;" link="data:page/id,M-99KiwbqvNfxm6ek-Rf" id="RlwIq9C2JBTWlbVYyaGm-26">
          <mxCell style="html=1;whiteSpace=wrap;fillColor=#e1d5e7;strokeColor=#9673a6;container=0;" vertex="1" parent="RlwIq9C2JBTWlbVYyaGm-1">
            <mxGeometry x="205" y="749" width="350" height="117" as="geometry" />
          </mxCell>
        </UserObject>
        <mxCell id="RlwIq9C2JBTWlbVYyaGm-27" value="revoc_refs : vector&amp;lt;CrlOcspRef&amp;gt;" style="text;strokeColor=none;fillColor=none;align=left;verticalAlign=top;spacingLeft=4;spacingRight=4;overflow=hidden;rotatable=0;points=[[0,0.5],[1,0.5]];portConstraint=eastwest;whiteSpace=wrap;html=1;container=0;" vertex="1" parent="RlwIq9C2JBTWlbVYyaGm-1">
          <mxGeometry x="409" y="524" width="250" height="26" as="geometry" />
        </mxCell>
        <mxCell id="RlwIq9C2JBTWlbVYyaGm-28" value="revoc_vals : RevocationValues" style="text;strokeColor=none;fillColor=none;align=left;verticalAlign=top;spacingLeft=4;spacingRight=4;overflow=hidden;rotatable=0;points=[[0,0.5],[1,0.5]];portConstraint=eastwest;whiteSpace=wrap;html=1;container=0;" vertex="1" parent="RlwIq9C2JBTWlbVYyaGm-1">
          <mxGeometry x="409" y="550" width="250" height="26" as="geometry" />
        </mxCell>
        <mxCell id="RlwIq9C2JBTWlbVYyaGm-29" value="cert_vals : vector&amp;lt;Certificate&amp;gt;" style="text;strokeColor=none;fillColor=none;align=left;verticalAlign=top;spacingLeft=4;spacingRight=4;overflow=hidden;rotatable=0;points=[[0,0.5],[1,0.5]];portConstraint=eastwest;whiteSpace=wrap;html=1;container=0;" vertex="1" parent="RlwIq9C2JBTWlbVYyaGm-1">
          <mxGeometry x="409" y="576" width="250" height="26" as="geometry" />
        </mxCell>
        <mxCell id="RlwIq9C2JBTWlbVYyaGm-30" value="cert_refs : vector&amp;lt;OtherCertID&amp;gt;" style="text;strokeColor=none;fillColor=none;align=left;verticalAlign=top;spacingLeft=4;spacingRight=4;overflow=hidden;rotatable=0;points=[[0,0.5],[1,0.5]];portConstraint=eastwest;whiteSpace=wrap;html=1;container=0;" vertex="1" parent="RlwIq9C2JBTWlbVYyaGm-1">
          <mxGeometry x="409" y="602" width="250" height="26" as="geometry" />
        </mxCell>
        <mxCell id="RlwIq9C2JBTWlbVYyaGm-31" value="signers_cert : vector&amp;lt;CertificateID&amp;gt;" style="text;strokeColor=none;fillColor=none;align=left;verticalAlign=top;spacingLeft=4;spacingRight=4;overflow=hidden;rotatable=0;points=[[0,0.5],[1,0.5]];portConstraint=eastwest;whiteSpace=wrap;html=1;container=0;" vertex="1" parent="RlwIq9C2JBTWlbVYyaGm-1">
          <mxGeometry x="409" y="628" width="250" height="26" as="geometry" />
        </mxCell>
      </root>
    </mxGraphModel>
  </diagram>
  <diagram id="K9csmy32tpbCSeU4OQ-h" name="ASN1 Parser">
    <mxGraphModel dx="2607" dy="2664" grid="0" gridSize="10" guides="1" tooltips="1" connect="1" arrows="1" fold="1" page="1" pageScale="1" pageWidth="827" pageHeight="1169" math="0" shadow="0">
      <root>
        <mxCell id="0" />
        <mxCell id="1" parent="0" />
        <mxCell id="rlkVemRkqj-vrORtZW3w-1" value="" style="group" vertex="1" connectable="0" parent="1">
          <mxGeometry x="44" y="-1147" width="811" height="491" as="geometry" />
        </mxCell>
        <mxCell id="rlkVemRkqj-vrORtZW3w-2" value="&lt;b&gt;AsnHeader&lt;/b&gt;" style="swimlane;fontStyle=0;childLayout=stackLayout;horizontal=1;startSize=26;fillColor=none;horizontalStack=0;resizeParent=1;resizeParentMax=0;resizeLast=0;collapsible=1;marginBottom=0;whiteSpace=wrap;html=1;" vertex="1" parent="rlkVemRkqj-vrORtZW3w-1">
          <mxGeometry x="563" y="148.94000000000005" width="205" height="286" as="geometry" />
        </mxCell>
        <mxCell id="rlkVemRkqj-vrORtZW3w-3" value="+ asn_tag : AsnTag" style="text;strokeColor=none;fillColor=none;align=left;verticalAlign=top;spacingLeft=4;spacingRight=4;overflow=hidden;rotatable=0;points=[[0,0.5],[1,0.5]];portConstraint=eastwest;whiteSpace=wrap;html=1;" vertex="1" parent="rlkVemRkqj-vrORtZW3w-2">
          <mxGeometry y="26" width="205" height="26" as="geometry" />
        </mxCell>
        <mxCell id="rlkVemRkqj-vrORtZW3w-4" value="+ tag_type : AsnTagType" style="text;strokeColor=none;fillColor=none;align=left;verticalAlign=top;spacingLeft=4;spacingRight=4;overflow=hidden;rotatable=0;points=[[0,0.5],[1,0.5]];portConstraint=eastwest;whiteSpace=wrap;html=1;" vertex="1" parent="rlkVemRkqj-vrORtZW3w-2">
          <mxGeometry y="52" width="205" height="26" as="geometry" />
        </mxCell>
        <mxCell id="rlkVemRkqj-vrORtZW3w-5" value="+ constructed :bool" style="text;strokeColor=none;fillColor=none;align=left;verticalAlign=top;spacingLeft=4;spacingRight=4;overflow=hidden;rotatable=0;points=[[0,0.5],[1,0.5]];portConstraint=eastwest;whiteSpace=wrap;html=1;" vertex="1" parent="rlkVemRkqj-vrORtZW3w-2">
          <mxGeometry y="78" width="205" height="26" as="geometry" />
        </mxCell>
        <mxCell id="rlkVemRkqj-vrORtZW3w-6" value="+ stream_encoded : bool" style="text;strokeColor=none;fillColor=none;align=left;verticalAlign=top;spacingLeft=4;spacingRight=4;overflow=hidden;rotatable=0;points=[[0,0.5],[1,0.5]];portConstraint=eastwest;whiteSpace=wrap;html=1;" vertex="1" parent="rlkVemRkqj-vrORtZW3w-2">
          <mxGeometry y="104" width="205" height="26" as="geometry" />
        </mxCell>
        <mxCell id="rlkVemRkqj-vrORtZW3w-7" value="+ content_length : uint" style="text;strokeColor=none;fillColor=none;align=left;verticalAlign=top;spacingLeft=4;spacingRight=4;overflow=hidden;rotatable=0;points=[[0,0.5],[1,0.5]];portConstraint=eastwest;whiteSpace=wrap;html=1;" vertex="1" parent="rlkVemRkqj-vrORtZW3w-2">
          <mxGeometry y="130" width="205" height="26" as="geometry" />
        </mxCell>
        <mxCell id="rlkVemRkqj-vrORtZW3w-8" value="+ sizeof_header : uint" style="text;strokeColor=none;fillColor=none;align=left;verticalAlign=top;spacingLeft=4;spacingRight=4;overflow=hidden;rotatable=0;points=[[0,0.5],[1,0.5]];portConstraint=eastwest;whiteSpace=wrap;html=1;" vertex="1" parent="rlkVemRkqj-vrORtZW3w-2">
          <mxGeometry y="156" width="205" height="26" as="geometry" />
        </mxCell>
        <mxCell id="rlkVemRkqj-vrORtZW3w-9" value="+ raw_header&amp;nbsp; :BytesVector" style="text;strokeColor=none;fillColor=none;align=left;verticalAlign=top;spacingLeft=4;spacingRight=4;overflow=hidden;rotatable=0;points=[[0,0.5],[1,0.5]];portConstraint=eastwest;whiteSpace=wrap;html=1;" vertex="1" parent="rlkVemRkqj-vrORtZW3w-2">
          <mxGeometry y="182" width="205" height="26" as="geometry" />
        </mxCell>
        <mxCell id="rlkVemRkqj-vrORtZW3w-10" value="TypeStr() : string" style="text;strokeColor=none;fillColor=none;align=left;verticalAlign=top;spacingLeft=4;spacingRight=4;overflow=hidden;rotatable=0;points=[[0,0.5],[1,0.5]];portConstraint=eastwest;whiteSpace=wrap;html=1;" vertex="1" parent="rlkVemRkqj-vrORtZW3w-2">
          <mxGeometry y="208" width="205" height="26" as="geometry" />
        </mxCell>
        <mxCell id="rlkVemRkqj-vrORtZW3w-11" value="ConstructedStr() : string" style="text;strokeColor=none;fillColor=none;align=left;verticalAlign=top;spacingLeft=4;spacingRight=4;overflow=hidden;rotatable=0;points=[[0,0.5],[1,0.5]];portConstraint=eastwest;whiteSpace=wrap;html=1;" vertex="1" parent="rlkVemRkqj-vrORtZW3w-2">
          <mxGeometry y="234" width="205" height="26" as="geometry" />
        </mxCell>
        <mxCell id="rlkVemRkqj-vrORtZW3w-12" value="TagStr() : string" style="text;strokeColor=none;fillColor=none;align=left;verticalAlign=top;spacingLeft=4;spacingRight=4;overflow=hidden;rotatable=0;points=[[0,0.5],[1,0.5]];portConstraint=eastwest;whiteSpace=wrap;html=1;" vertex="1" parent="rlkVemRkqj-vrORtZW3w-2">
          <mxGeometry y="260" width="205" height="26" as="geometry" />
        </mxCell>
        <mxCell id="rlkVemRkqj-vrORtZW3w-13" value="&lt;b&gt;AsnObj&lt;/b&gt;" style="swimlane;fontStyle=0;childLayout=stackLayout;horizontal=1;startSize=26;fillColor=none;horizontalStack=0;resizeParent=1;resizeParentMax=0;resizeLast=0;collapsible=1;marginBottom=0;whiteSpace=wrap;html=1;" vertex="1" parent="rlkVemRkqj-vrORtZW3w-1">
          <mxGeometry x="298" y="73.94000000000005" width="190" height="264" as="geometry" />
        </mxCell>
        <mxCell id="rlkVemRkqj-vrORtZW3w-14" value="GetAsnTag() : AsnTag" style="text;strokeColor=none;fillColor=none;align=left;verticalAlign=top;spacingLeft=4;spacingRight=4;overflow=hidden;rotatable=0;points=[[0,0.5],[1,0.5]];portConstraint=eastwest;whiteSpace=wrap;html=1;" vertex="1" parent="rlkVemRkqj-vrORtZW3w-13">
          <mxGeometry y="26" width="190" height="26" as="geometry" />
        </mxCell>
        <mxCell id="rlkVemRkqj-vrORtZW3w-15" value="IsFlat() :bool" style="text;strokeColor=none;fillColor=none;align=left;verticalAlign=top;spacingLeft=4;spacingRight=4;overflow=hidden;rotatable=0;points=[[0,0.5],[1,0.5]];portConstraint=eastwest;whiteSpace=wrap;html=1;" vertex="1" parent="rlkVemRkqj-vrORtZW3w-13">
          <mxGeometry y="52" width="190" height="26" as="geometry" />
        </mxCell>
        <mxCell id="rlkVemRkqj-vrORtZW3w-16" value="Size() :uint - childs count" style="text;strokeColor=none;fillColor=none;align=left;verticalAlign=top;spacingLeft=4;spacingRight=4;overflow=hidden;rotatable=0;points=[[0,0.5],[1,0.5]];portConstraint=eastwest;whiteSpace=wrap;html=1;" vertex="1" parent="rlkVemRkqj-vrORtZW3w-13">
          <mxGeometry y="78" width="190" height="4" as="geometry" />
        </mxCell>
        <mxCell id="rlkVemRkqj-vrORtZW3w-17" value="Size() : size_t" style="text;strokeColor=none;fillColor=none;align=left;verticalAlign=top;spacingLeft=4;spacingRight=4;overflow=hidden;rotatable=0;points=[[0,0.5],[1,0.5]];portConstraint=eastwest;whiteSpace=wrap;html=1;" vertex="1" parent="rlkVemRkqj-vrORtZW3w-13">
          <mxGeometry y="82" width="190" height="26" as="geometry" />
        </mxCell>
        <mxCell id="rlkVemRkqj-vrORtZW3w-18" value="ChildsCount() :bool" style="text;strokeColor=none;fillColor=none;align=left;verticalAlign=top;spacingLeft=4;spacingRight=4;overflow=hidden;rotatable=0;points=[[0,0.5],[1,0.5]];portConstraint=eastwest;whiteSpace=wrap;html=1;" vertex="1" parent="rlkVemRkqj-vrORtZW3w-13">
          <mxGeometry y="108" width="190" height="26" as="geometry" />
        </mxCell>
        <mxCell id="rlkVemRkqj-vrORtZW3w-19" value="Childs() : vec&amp;lt;AsnObj&amp;gt;" style="text;strokeColor=none;fillColor=none;align=left;verticalAlign=top;spacingLeft=4;spacingRight=4;overflow=hidden;rotatable=0;points=[[0,0.5],[1,0.5]];portConstraint=eastwest;whiteSpace=wrap;html=1;" vertex="1" parent="rlkVemRkqj-vrORtZW3w-13">
          <mxGeometry y="134" width="190" height="26" as="geometry" />
        </mxCell>
        <mxCell id="rlkVemRkqj-vrORtZW3w-20" value="StringData() : string" style="text;strokeColor=none;fillColor=none;align=left;verticalAlign=top;spacingLeft=4;spacingRight=4;overflow=hidden;rotatable=0;points=[[0,0.5],[1,0.5]];portConstraint=eastwest;whiteSpace=wrap;html=1;" vertex="1" parent="rlkVemRkqj-vrORtZW3w-13">
          <mxGeometry y="160" width="190" height="26" as="geometry" />
        </mxCell>
        <mxCell id="rlkVemRkqj-vrORtZW3w-21" value="Data() : BytesVector" style="text;strokeColor=none;fillColor=none;align=left;verticalAlign=top;spacingLeft=4;spacingRight=4;overflow=hidden;rotatable=0;points=[[0,0.5],[1,0.5]];portConstraint=eastwest;whiteSpace=wrap;html=1;" vertex="1" parent="rlkVemRkqj-vrORtZW3w-13">
          <mxGeometry y="186" width="190" height="26" as="geometry" />
        </mxCell>
        <mxCell id="rlkVemRkqj-vrORtZW3w-22" value="ParseAs(AsnTag) : AsnObj" style="text;strokeColor=none;fillColor=none;align=left;verticalAlign=top;spacingLeft=4;spacingRight=4;overflow=hidden;rotatable=0;points=[[0,0.5],[1,0.5]];portConstraint=eastwest;whiteSpace=wrap;html=1;" vertex="1" parent="rlkVemRkqj-vrORtZW3w-13">
          <mxGeometry y="212" width="190" height="26" as="geometry" />
        </mxCell>
        <mxCell id="rlkVemRkqj-vrORtZW3w-23" value="ParseChoiceNumber() : uint" style="text;strokeColor=none;fillColor=none;align=left;verticalAlign=top;spacingLeft=4;spacingRight=4;overflow=hidden;rotatable=0;points=[[0,0.5],[1,0.5]];portConstraint=eastwest;whiteSpace=wrap;html=1;" vertex="1" parent="rlkVemRkqj-vrORtZW3w-13">
          <mxGeometry y="238" width="190" height="26" as="geometry" />
        </mxCell>
        <mxCell id="rlkVemRkqj-vrORtZW3w-24" value="&lt;b&gt;enum AsnTag &lt;/b&gt;&lt;div&gt;&lt;br&gt;&lt;/div&gt;" style="swimlane;fontStyle=0;childLayout=stackLayout;horizontal=1;startSize=26;fillColor=none;horizontalStack=0;resizeParent=1;resizeParentMax=0;resizeLast=0;collapsible=1;marginBottom=0;whiteSpace=wrap;html=1;" vertex="1" parent="rlkVemRkqj-vrORtZW3w-1">
          <mxGeometry x="72" y="122.00000000000006" width="110" height="52" as="geometry" />
        </mxCell>
        <mxCell id="rlkVemRkqj-vrORtZW3w-25" value="&lt;b&gt;enum AsnTagType&lt;/b&gt;" style="swimlane;fontStyle=0;childLayout=stackLayout;horizontal=1;startSize=26;fillColor=none;horizontalStack=0;resizeParent=1;resizeParentMax=0;resizeLast=0;collapsible=1;marginBottom=0;whiteSpace=wrap;html=1;" vertex="1" parent="rlkVemRkqj-vrORtZW3w-1">
          <mxGeometry x="568" y="81.94000000000005" width="130" height="52" as="geometry" />
        </mxCell>
        <mxCell id="rlkVemRkqj-vrORtZW3w-26" value="return" style="html=1;verticalAlign=bottom;endArrow=open;dashed=1;endSize=8;curved=0;rounded=0;exitX=0;exitY=0.5;exitDx=0;exitDy=0;entryX=0.984;entryY=0.395;entryDx=0;entryDy=0;entryPerimeter=0;" edge="1" parent="rlkVemRkqj-vrORtZW3w-1" source="rlkVemRkqj-vrORtZW3w-14" target="rlkVemRkqj-vrORtZW3w-24">
          <mxGeometry relative="1" as="geometry">
            <mxPoint x="958" y="117.94000000000005" as="sourcePoint" />
            <mxPoint x="878" y="117.94000000000005" as="targetPoint" />
          </mxGeometry>
        </mxCell>
        <mxCell id="rlkVemRkqj-vrORtZW3w-27" value="" style="endArrow=diamondThin;endFill=1;endSize=24;html=1;rounded=0;exitX=0;exitY=0.103;exitDx=0;exitDy=0;exitPerimeter=0;entryX=0.996;entryY=0.056;entryDx=0;entryDy=0;entryPerimeter=0;" edge="1" parent="rlkVemRkqj-vrORtZW3w-1" source="rlkVemRkqj-vrORtZW3w-25" target="rlkVemRkqj-vrORtZW3w-13">
          <mxGeometry width="160" relative="1" as="geometry">
            <mxPoint x="838" y="117.94000000000005" as="sourcePoint" />
            <mxPoint x="488" y="171.94000000000005" as="targetPoint" />
          </mxGeometry>
        </mxCell>
        <mxCell id="rlkVemRkqj-vrORtZW3w-28" value="0...n" style="endArrow=open;html=1;endSize=12;startArrow=diamondThin;startSize=14;startFill=1;edgeStyle=orthogonalEdgeStyle;align=left;verticalAlign=bottom;rounded=0;entryX=0.585;entryY=-0.005;entryDx=0;entryDy=0;entryPerimeter=0;exitX=-0.007;exitY=0.049;exitDx=0;exitDy=0;exitPerimeter=0;" edge="1" parent="rlkVemRkqj-vrORtZW3w-1" source="rlkVemRkqj-vrORtZW3w-13" target="rlkVemRkqj-vrORtZW3w-13">
          <mxGeometry x="-0.3346" y="-10" relative="1" as="geometry">
            <mxPoint x="298" y="122.94000000000005" as="sourcePoint" />
            <mxPoint x="348" y="283.94" as="targetPoint" />
            <Array as="points">
              <mxPoint x="278" y="81.94000000000005" />
              <mxPoint x="278" y="41.940000000000055" />
              <mxPoint x="409" y="41.940000000000055" />
            </Array>
            <mxPoint as="offset" />
          </mxGeometry>
        </mxCell>
        <mxCell id="rlkVemRkqj-vrORtZW3w-29" value="" style="endArrow=diamondThin;endFill=1;endSize=24;html=1;rounded=0;entryX=0.996;entryY=0.256;entryDx=0;entryDy=0;exitX=0;exitY=0.057;exitDx=0;exitDy=0;exitPerimeter=0;entryPerimeter=0;" edge="1" parent="rlkVemRkqj-vrORtZW3w-1" source="rlkVemRkqj-vrORtZW3w-2" target="rlkVemRkqj-vrORtZW3w-17">
          <mxGeometry width="160" relative="1" as="geometry">
            <mxPoint x="303" y="301.94" as="sourcePoint" />
            <mxPoint x="463" y="301.94" as="targetPoint" />
          </mxGeometry>
        </mxCell>
        <mxCell id="rlkVemRkqj-vrORtZW3w-30" value="&lt;font style=&quot;font-size: 26px;&quot;&gt;&lt;b&gt;ASN1 Parser&lt;br&gt;&lt;/b&gt;&lt;/font&gt;" style="shape=umlFrame;whiteSpace=wrap;html=1;pointerEvents=0;recursiveResize=0;container=1;collapsible=0;width=257;strokeWidth=3;height=54;fillColor=#ffcd28;gradientColor=#ffa500;strokeColor=#d79b00;" vertex="1" parent="rlkVemRkqj-vrORtZW3w-1">
          <mxGeometry width="811" height="491" as="geometry" />
        </mxCell>
      </root>
    </mxGraphModel>
  </diagram>
</mxfile>
